<svg width="120" height="120" viewBox="0 0 120 120" fill="none" xmlns="http://www.w3.org/2000/svg">
<path d="M33.1641 0.281282C32.0859 0.867217 32.1094 0.492223 32.1094 15.6328V30H16.7344H1.35938L0.679688 30.6796L0 31.3593V67.8514C0 95.1326 0.0703125 104.461 0.28125 104.836C0.773438 105.797 1.19531 105.914 3.70312 105.937H6.09375V112.242C6.09375 115.711 6.16406 118.734 6.23438 118.945C6.65625 120.047 4.125 120 60 120C115.875 120 113.344 120.047 113.766 118.945C113.836 118.734 113.906 115.711 113.906 112.242V105.937H116.32C118.805 105.914 119.227 105.797 119.719 104.836C119.93 104.461 120 95.1326 120 67.8514V31.3593L119.32 30.6796L118.641 30H103.266H87.8906V15.7266C87.8906 7.87502 87.8203 1.26566 87.75 1.05472C87.3281 -0.0234031 87.9609 3.14713e-05 59.9531 3.14713e-05C41.3438 0.0234689 33.4922 0.093782 33.1641 0.281282ZM83.9062 41.0859V78.1873L82.3359 78.0936C80.5078 77.9998 78.7266 78.5389 77.1328 79.7108C76.0312 80.4842 74.7656 82.3826 74.3438 83.8123C73.7109 85.992 74.2266 88.8514 75.5625 90.6795L76.1484 91.4529L74.8125 92.4373C74.0859 92.9998 73.1953 93.7967 72.8203 94.242L72.1875 95.0388L71.7656 94.4763C70.4062 92.5545 68.4375 90.6795 66.8438 89.7889C66.5391 89.6248 66.6328 89.3904 67.4531 88.4764C67.9922 87.867 68.7188 86.7654 69.0703 86.0389C69.6797 84.8201 69.7266 84.5154 69.7266 81.9139C69.7266 79.2889 69.6797 79.0076 69.0469 77.742C65.6484 70.8983 56.5781 69.9842 51.9844 76.0545C50.6016 77.8826 50.0859 79.7342 50.2031 82.4529C50.3203 85.1014 50.9062 86.6248 52.5469 88.4764C53.3672 89.3904 53.4609 89.6248 53.1562 89.7889C51.5625 90.6795 49.5938 92.5545 48.2344 94.4763L47.8125 95.0388L47.1797 94.242C46.8047 93.7967 45.9141 92.9763 45.1875 92.4373L43.8516 91.4529L44.2734 90.9139C45.9141 88.8045 46.4062 85.617 45.4688 83.1561C44.8125 81.3983 43.2188 79.6404 41.5312 78.8201C40.3828 78.2576 39.9141 78.1639 38.1562 78.1639H36.0938V41.0624V3.9844H60H83.9062V41.0859ZM32.0625 57.2811L32.1094 80.4608L31.3828 81.5857C29.5781 84.4217 29.5781 87.8435 31.4297 90.4451C32.1328 91.4295 32.1328 91.5232 31.7344 91.7576C29.9297 92.7654 27.2812 96.0935 26.6953 98.0857C26.5312 98.6716 26.3203 99.1404 26.25 99.1404C26.1797 99.1404 25.7344 98.8591 25.2891 98.531C24.8438 98.2029 24.3281 97.8513 24.1406 97.7341C23.8594 97.5701 23.9062 97.3826 24.4453 96.6326C25.5469 95.0388 25.875 93.9842 25.875 91.992C25.875 90.4451 25.7812 89.8826 25.2656 88.8045C22.875 83.6248 16.4297 82.4061 12.3984 86.3436C9.70312 88.9685 9.30469 93.5154 11.4844 96.5388L12.1875 97.4763L11.1797 98.1795C10.1016 98.906 8.41406 100.64 7.99219 101.461C7.75781 101.906 7.52344 101.953 5.85938 101.953H3.98438V67.9686V33.9843L18 34.0312L31.9922 34.1015L32.0625 57.2811ZM116.016 67.9686V101.953H114.141C112.477 101.953 112.242 101.906 112.008 101.461C111.586 100.64 109.898 98.906 108.82 98.1795L107.812 97.4763L108.516 96.5154C110.625 93.6092 110.32 89.2967 107.836 86.6482C103.852 82.3826 97.1953 83.4842 94.7344 88.8045C94.2188 89.8826 94.125 90.4451 94.125 91.992C94.125 93.9842 94.4531 95.0388 95.5547 96.6326C96.0938 97.3826 96.1406 97.5701 95.8594 97.7341C95.6719 97.8513 95.1562 98.2029 94.7109 98.531C94.2656 98.8591 93.8203 99.1404 93.75 99.1404C93.6797 99.1404 93.4688 98.6716 93.3047 98.0857C92.7188 96.0935 90.0703 92.7654 88.2656 91.7576C87.8672 91.5232 87.8672 91.4295 88.5703 90.4451C90.3984 87.8435 90.4219 84.2811 88.5938 81.5623L87.8906 80.5076V57.3983C87.8906 44.6952 87.9609 34.2187 88.0547 34.1484C88.125 34.0546 94.4531 33.9843 102.117 33.9843H116.016V67.9686ZM62.3203 76.5467C64.5234 77.4608 65.9062 79.5467 65.9062 81.9842C65.9062 83.6482 65.4141 84.9139 64.2656 86.1092C63.0469 87.3748 61.8281 87.8904 60 87.8904C58.1719 87.8904 56.9531 87.3748 55.7344 86.1092C54.5859 84.9139 54.0938 83.6482 54.0938 81.9607C54.0938 77.7186 58.3594 74.9295 62.3203 76.5467ZM39.8438 82.5467C42.6094 83.9529 42.6094 88.0076 39.8438 89.4607C38.0859 90.3982 36.3516 90.0701 34.9922 88.5232C33.6797 87.0232 33.6797 85.0076 34.9922 83.5076C36.3516 81.9608 38.0391 81.6326 39.8438 82.5467ZM83.5078 82.3592C84.5391 82.7811 85.7344 84.1873 85.9219 85.1951C86.3672 87.6326 84.4219 89.9998 81.9609 89.9998C79.9453 89.9998 78.0469 88.0076 78.0469 85.9217C78.0703 83.2264 81 81.3045 83.5078 82.3592ZM20.3672 88.8045C21.2344 89.4373 22.0078 90.9373 22.0312 91.992C22.0312 92.9295 21.1406 94.6638 20.3672 95.2263C19.0781 96.1638 16.9922 96.1638 15.7266 95.2263C14.5312 94.3123 14.1797 93.5857 14.1797 91.992C14.1797 90.3279 14.5781 89.5779 15.9609 88.6404C17.0391 87.8904 19.1953 87.9842 20.3672 88.8045ZM104.062 88.6404C105.117 89.367 105.68 90.1873 105.844 91.2185C106.266 93.7967 104.531 95.906 101.953 95.906C98.7422 95.906 96.9141 92.4138 98.7422 89.7654C99.8438 88.1248 102.492 87.5857 104.062 88.6404ZM63.0938 92.5545C66.7734 93.8201 69.3047 96.8435 69.8438 100.664C69.9609 101.554 70.0781 105.398 70.0781 109.148V116.015H60H49.9219V109.148C49.9219 105.398 50.0391 101.554 50.1562 100.664C50.6953 96.8904 53.2031 93.867 56.8125 92.5779C58.4766 91.9685 61.4062 91.9685 63.0938 92.5545ZM40.0547 94.3357C42.4688 94.9685 44.3906 96.6795 45.3984 99.117C45.9141 100.383 45.9375 100.64 45.9375 108.211V116.015H37.9688H30V108.562C30 99.5857 30.1406 98.8591 32.2031 96.5857C33.2109 95.5076 34.4766 94.7342 35.9297 94.3357C37.5234 93.9138 38.5078 93.9138 40.0547 94.3357ZM83.9766 94.3357C86.7891 95.0623 88.7812 97.031 89.625 99.8435C89.9297 100.875 90 102.445 90 108.562V116.015H82.0312H74.0625V108.211C74.0625 100.64 74.0859 100.383 74.6016 99.117C75.6094 96.6795 77.6016 94.8982 79.9688 94.3123C81.6328 93.9138 82.4062 93.9138 83.9766 94.3357ZM21.375 100.828C22.1016 101.156 23.1328 101.883 23.6719 102.445C25.6641 104.508 26.0156 105.843 26.0156 111.609V116.015H18.0469H10.0781V111.375C10.0781 106.125 10.2656 105.117 11.6016 103.312C12.5156 102.07 14.1562 100.851 15.5625 100.406C17.1094 99.8904 19.8047 100.101 21.375 100.828ZM105.352 100.781C106.852 101.508 108.492 103.148 109.219 104.648C109.781 105.773 109.805 106.054 109.875 110.906L109.945 116.015H101.977H93.9844V111.609C93.9844 106.218 94.2656 104.883 95.8359 102.961C96.7266 101.883 97.6172 101.25 99.1172 100.617C100.875 99.867 103.617 99.9373 105.352 100.781Z" fill="#0C1830"/>
<path d="M47.1562 8.20318C46.0312 8.67193 45.9375 9.44536 45.9375 18.0235C45.9375 26.0859 46.0078 26.9531 46.8281 27.5625C47.4141 28.0078 72.5859 28.0078 73.1719 27.5625C73.9922 26.9531 74.0625 26.0859 74.0625 18.0235C74.0625 9.32818 73.9687 8.64849 72.7734 8.20318C71.9766 7.89849 47.9062 7.92193 47.1562 8.20318ZM70.0781 17.9297V23.9063H60H49.9219V17.9297V11.9532H60H70.0781V17.9297Z" fill="#5178FF"/>
<path d="M49.9688 34.0313L50.0391 35.9766L51.9844 36.0469L53.9062 36.1172V34.1016V32.1094H51.9141H49.8984L49.9688 34.0313Z" fill="#0C1830"/>
<path d="M57.9375 34.0313L58.0078 35.9766H60H61.9922L62.0625 34.0313L62.1328 32.1094H60H57.8672L57.9375 34.0313Z" fill="#0C1830"/>
<path d="M66.0938 34.1016V36.1172L68.0391 36.0469L69.9609 35.9766L70.0312 34.0313L70.1016 32.1094H68.0859H66.0938V34.1016Z" fill="#0C1830"/>
<path d="M41.9531 42.0703V44.0625H43.9453H45.9375V42.0703V40.0781H43.9453H41.9531V42.0703Z" fill="#0C1830"/>
<path d="M49.9688 42L50.0391 43.9453L51.9844 44.0156L53.9062 44.0859V42.0703V40.0781H51.9141H49.8984L49.9688 42Z" fill="#0C1830"/>
<path d="M57.9375 42L58.0078 43.9453H60H61.9922L62.0625 42L62.1328 40.0781H60H57.8672L57.9375 42Z" fill="#0C1830"/>
<path d="M66.0938 42.0703V44.0859L68.0391 44.0156L69.9609 43.9453L70.0312 42L70.1016 40.0781H68.0859H66.0938V42.0703Z" fill="#0C1830"/>
<path d="M74.0625 42.0703V44.0625H76.0547H78.0469V42.0703V40.0781H76.0547H74.0625V42.0703Z" fill="#0C1830"/>
<path d="M41.9531 50.0391V52.0312H43.9453H45.9375V50.0391V48.0469H43.9453H41.9531V50.0391Z" fill="#0C1830"/>
<path d="M49.9219 50.0391V52.0312H51.9141H53.9062V50.0391V48.0469H51.9141H49.9219V50.0391Z" fill="#0C1830"/>
<path d="M57.9375 49.9688L58.0078 51.9141H60H61.9922L62.0625 49.9688L62.1328 48.0469H60H57.8672L57.9375 49.9688Z" fill="#0C1830"/>
<path d="M66.0938 50.0391V52.0312H68.0859H70.0781V50.0391V48.0469H68.0859H66.0938V50.0391Z" fill="#0C1830"/>
<path d="M74.0625 50.0391V52.0312H76.0547H78.0469V50.0391V48.0469H76.0547H74.0625V50.0391Z" fill="#0C1830"/>
<path d="M41.9531 58.0078V60H43.9453H45.9375V58.0078V56.0156H43.9453H41.9531V58.0078Z" fill="#0C1830"/>
<path d="M49.9219 58.0078V60H51.9141H53.9062V58.0078V56.0156H51.9141H49.9219V58.0078Z" fill="#0C1830"/>
<path d="M57.8906 58.0078V60H60H62.1094V58.0078V56.0156H60H57.8906V58.0078Z" fill="#0C1830"/>
<path d="M66.0938 58.0078V60H68.0859H70.0781V58.0078V56.0156H68.0859H66.0938V58.0078Z" fill="#0C1830"/>
<path d="M74.0625 58.0078V60H76.0547H78.0469V58.0078V56.0156H76.0547H74.0625V58.0078Z" fill="#0C1830"/>
<path d="M41.9531 65.9766V67.9688H43.9453H45.9375V65.9766V63.9844H43.9453H41.9531V65.9766Z" fill="#0C1830"/>
<path d="M49.9219 65.9766V67.9688H51.9141H53.9062V65.9766V63.9844H51.9141H49.9219V65.9766Z" fill="#0C1830"/>
<path d="M58.0547 64.125C57.9609 64.2188 57.8906 65.1328 57.8906 66.1406V67.9688H60H62.1328L62.0625 66.0234L61.9922 64.1016L60.1172 64.0313C59.0625 64.0078 58.1484 64.0313 58.0547 64.125Z" fill="#0C1830"/>
<path d="M66.0938 65.9766V67.9688H68.0859H70.0781V65.9766V63.9844H68.0859H66.0938V65.9766Z" fill="#0C1830"/>
<path d="M74.0625 65.9766V67.9688H76.0547H78.0469V65.9766V63.9844H76.0547H74.0625V65.9766Z" fill="#0C1830"/>
<path d="M10.0781 61.992V78.0466H12.0703H14.0625V61.992V45.9373H12.0703H10.0781V61.992Z" fill="#5178FF"/>
<path d="M22.0312 61.992V78.0466H24.0234H26.0156V61.992V45.9373H24.0234H22.0312V61.992Z" fill="#5178FF"/>
<path d="M93.9844 61.992V78.0466H95.9766H97.9688V61.992V45.9373H95.9766H93.9844V61.992Z" fill="#5178FF"/>
<path d="M105.938 61.992V78.0466H107.93H109.922V61.992V45.9373H107.93H105.938V61.992Z" fill="#5178FF"/>
</svg>
