<svg width="30" height="30" viewBox="0 0 30 30" fill="none" xmlns="http://www.w3.org/2000/svg">
<circle cx="15" cy="15" r="13.25" stroke="#0C1830" stroke-width="1.5"/>
<path d="M14.1398 7.48261C14.5255 6.82034 15.4823 6.82034 15.868 7.48261L17.6917 10.6136C17.833 10.8562 18.0697 11.0282 18.3441 11.0877L21.8854 11.8545C22.6345 12.0167 22.9301 12.9266 22.4195 13.4981L20.0052 16.2001C19.8182 16.4094 19.7277 16.6878 19.756 16.9671L20.121 20.572C20.1982 21.3345 19.4242 21.8969 18.7229 21.5878L15.4072 20.1267C15.1502 20.0135 14.8576 20.0135 14.6007 20.1267L11.2849 21.5878C10.5836 21.8969 9.80958 21.3345 9.88679 20.572L10.2518 16.9671C10.2801 16.6878 10.1896 16.4094 10.0026 16.2001L7.58835 13.4981C7.07769 12.9266 7.37335 12.0167 8.1224 11.8545L11.6637 11.0877C11.9381 11.0282 12.1749 10.8562 12.3162 10.6136L14.1398 7.48261Z" stroke="#5178FF" stroke-width="1.5"/>
</svg>
