<svg width="21" height="21" viewBox="0 0 21 21" fill="none" xmlns="http://www.w3.org/2000/svg">
<g clip-path="url(#clip0_4_85)">
<mask id="mask0_4_85" style="mask-type:luminance" maskUnits="userSpaceOnUse" x="0" y="0" width="21" height="21">
<path d="M20.8943 0.765137H0.894287V20.7651H20.8943V0.765137Z" fill="white"/>
</mask>
<g mask="url(#mask0_4_85)">
<path d="M6.1709 5.67884C6.48034 5.14286 7.25397 5.14286 7.56341 5.67884L10.2397 10.3143C10.5491 10.8502 10.1623 11.5202 9.54341 11.5202H4.19091C3.57201 11.5202 3.1852 10.8502 3.49465 10.3143L6.1709 5.67884Z" stroke="#0C1830" stroke-width="1.2" stroke-linejoin="round"/>
<path d="M17.3991 5.27686H12.4363C11.884 5.27686 11.4363 5.72457 11.4363 6.27686V11.2397C11.4363 11.792 11.884 12.2397 12.4363 12.2397H17.3991C17.9514 12.2397 18.3991 11.792 18.3991 11.2397V6.27686C18.3991 5.72457 17.9514 5.27686 17.3991 5.27686Z" stroke="#0C1830" stroke-width="1.2"/>
<path d="M11.1604 16.2519C13.0831 16.2519 14.6418 14.6932 14.6418 12.7705C14.6418 10.8477 13.0831 9.28906 11.1604 9.28906C9.23764 9.28906 7.67896 10.8477 7.67896 12.7705C7.67896 14.6932 9.23764 16.2519 11.1604 16.2519Z" stroke="#5178FF" stroke-width="1.2"/>
</g>
</g>
<defs>
<clipPath id="clip0_4_85">
<rect width="20" height="20" fill="white" transform="translate(0.894287 0.765137)"/>
</clipPath>
</defs>
</svg>
