<svg width="120" height="120" viewBox="0 0 120 120" fill="none" xmlns="http://www.w3.org/2000/svg">
<path d="M56.4844 0.793982C55.3828 1.25247 44.3672 5.95797 32.0156 11.2426C10.6875 20.3158 9.44531 20.8949 8.29688 21.9808C7.57031 22.6565 6.77344 23.7182 6.39844 24.5145C5.78906 25.7935 5.74219 26.1313 5.67188 29.3166L5.57812 32.7673H3.9375C1.99219 32.7673 1.19531 33.1533 0.492188 34.4564C0.0703125 35.2527 0 35.7595 0 38.5828C0 41.1889 0.0703125 41.9852 0.421875 42.6609C0.984375 43.8192 2.0625 44.3983 4.00781 44.5431L5.625 44.6637V48.4523C5.625 53.761 5.17969 53.3749 11.4609 53.4715L16.4062 53.5439V78.1572V102.746H12.7734H9.14062V81.1736C9.14062 59.7213 9.14062 59.6248 8.64844 58.9733C8.01562 58.1528 6.79688 58.1046 6.09375 58.8768C5.625 59.4076 5.625 59.5765 5.625 84.5519V109.696L3.77344 109.769C2.17969 109.865 1.82812 109.962 1.28906 110.468C0.1875 111.53 0 112.182 0 114.933C0 117.683 0.1875 118.335 1.28906 119.397L1.92188 120H60H118.078L118.711 119.397C119.812 118.335 120 117.683 120 114.933C120 112.182 119.812 111.53 118.711 110.468C118.172 109.962 117.82 109.865 116.227 109.769L114.375 109.696V77.1679V44.6637L115.992 44.5431C117.914 44.3983 118.945 43.8433 119.555 42.6609C119.93 41.9611 120 41.2854 120 38.6069C120 35.7595 119.93 35.2527 119.508 34.4564C118.805 33.1533 118.008 32.7673 116.062 32.7673H114.422L114.328 29.3166C114.258 26.1554 114.188 25.7935 113.602 24.5145C113.203 23.6941 112.43 22.6565 111.703 21.9808C110.508 20.8467 109.312 20.3158 86.2266 10.4463C62.5781 0.359628 61.9453 0.09419 60.2344 0.0217976C58.6641 -0.0505947 58.2656 0.0217976 56.4844 0.793982ZM84.3984 13.6074C97.3359 19.1334 108.188 23.7906 108.516 23.9595C110.297 24.9006 110.859 26.3726 110.859 29.9922V32.7673H103.828H96.7969V31.1264C96.7969 27.8687 95.5547 25.6969 93.3516 25.0695C92.8125 24.9006 89.7188 24.8041 85.6172 24.8041C78.8438 24.8041 78.7734 24.8041 78.1875 25.335C77.3438 26.1313 77.2734 27.1448 78.0469 27.9411C78.4922 28.3996 78.8203 28.4237 85.5234 28.4237C92.5312 28.4237 92.5547 28.4237 92.9062 28.9546C93.2344 29.4372 93.2812 31.1264 93.2812 42.6609C93.2812 54.1954 93.2344 55.8845 92.9062 56.3672L92.5547 56.898H60H27.4453L27.0938 56.3672C26.7656 55.8845 26.7188 54.1954 26.7188 42.6609C26.7188 31.1264 26.7656 29.4372 27.0938 28.9546L27.4453 28.4237H49.5938C71.4141 28.4237 71.7188 28.4237 72.1875 27.9411C72.8906 27.2172 72.8203 25.9382 72.0469 25.3108C71.4141 24.8041 71.3203 24.8041 49.4766 24.8041C34.7344 24.8041 27.2344 24.9006 26.6484 25.0695C24.4453 25.6969 23.2031 27.8687 23.2031 31.1264V32.7673H16.1719H9.14062V29.9198C9.14062 26.8311 9.46875 25.6969 10.6172 24.5869C11.5547 23.7182 58.7109 3.61728 59.9062 3.59315C60.6797 3.56902 65.7656 5.64427 84.3984 13.6074ZM23.2031 38.6793V40.9717H13.3594H3.51562V38.6793V36.3869H13.3594H23.2031V38.6793ZM116.484 38.6793V40.9717H106.641H96.7969V38.6793V36.3869H106.641H116.484V38.6793ZM23.2031 47.2457V49.9001H16.1719H9.14062V47.2457V44.5913H16.1719H23.2031V47.2457ZM110.859 47.2457V49.9001H103.828H96.7969V47.2457V44.5913H103.828H110.859V47.2457ZM23.2734 55.3295C23.4375 57.4772 24.0469 58.7561 25.3828 59.7213L26.3203 60.397L31.6875 60.4694L37.0312 60.5418V81.6562V102.746H28.4766H19.9219V78.1331V53.5197H21.5391H23.1328L23.2734 55.3295ZM100.078 78.1331V102.746H91.5234H82.9688V81.6562V60.5418L88.3125 60.4694L93.6797 60.397L94.6172 59.7213C95.9531 58.7561 96.5625 57.4772 96.7266 55.3295L96.8672 53.5197H98.4609H100.078V78.1331ZM110.859 78.1331V102.746H107.227H103.594V78.1331V53.5197H107.227H110.859V78.1331ZM47.8125 81.6321V102.746H44.1797H40.5469V81.6321V60.5176H44.1797H47.8125V81.6321ZM68.6719 68.3843V76.2268L68.0391 75.7442C67.6641 75.4787 66.4922 74.4894 65.3906 73.5483C62.8594 71.3524 61.9688 70.8939 60 70.8939C58.0312 70.8939 57.1406 71.3524 54.6094 73.5483C53.5078 74.4894 52.3359 75.4787 51.9844 75.7442L51.3281 76.2268V68.3843V60.5176H60H68.6719V68.3843ZM79.4531 81.6321V102.746H75.8203H72.1875V81.6321V60.5176H75.8203H79.4531V81.6321ZM61.4062 74.9237C63.2344 76.2268 67.9219 80.4497 68.2734 81.1012C68.625 81.801 68.6719 82.8145 68.6719 92.2979V102.746H65.2734H61.8984L61.8281 92.6116C61.7578 82.549 61.7578 82.4766 61.2422 81.9699C60.5625 81.2701 59.4375 81.2701 58.7578 81.9699C58.2422 82.4766 58.2422 82.549 58.1719 92.6116L58.1016 102.746H54.7266H51.3281V92.2979C51.3516 84.7208 51.4219 81.7045 51.6328 81.2218C51.8672 80.6427 57.6562 75.4546 58.8047 74.7548C59.4141 74.3928 60.7734 74.4894 61.4062 74.9237ZM110.859 108.055V109.744H102.961C95.1797 109.744 95.0625 109.744 94.5234 110.275C93.8672 110.903 93.8203 111.892 94.4297 112.664L94.875 113.243L105.68 113.316L116.484 113.388V114.933V116.501H60H3.51562V114.933V113.364H45.5859C75.8906 113.364 87.7969 113.292 88.1953 113.099C88.7578 112.833 89.2969 111.964 89.2969 111.337C89.2969 111.168 89.0859 110.734 88.8047 110.372L88.3359 109.744H48.7266H9.14062V108.055V106.366H60H110.859V108.055Z" fill="#0C1830"/>
<path d="M59.0148 13.6318C55.5695 17.1307 55.1476 17.7581 55.546 18.7716C55.8742 19.5921 56.7414 20.0988 57.4679 19.9058C57.7726 19.8092 59.4835 18.2407 61.2648 16.3827C64.1007 13.4387 64.5226 12.9078 64.5226 12.2322C64.5226 11.2911 63.7726 10.5672 62.7414 10.5672C62.1554 10.5672 61.546 11.0498 59.0148 13.6318Z" fill="#5178FF"/>
<path d="M38.7892 33.105C36.0705 33.9978 33.9377 35.9042 32.7423 38.4861C30.9845 42.3712 31.9455 47.318 35.0158 50.093C36.3986 51.3237 37.8283 52.0718 39.633 52.4579C44.4377 53.4955 48.5158 50.7446 49.8048 45.6289C50.3439 43.5295 50.2736 42.1299 49.6173 41.5025C49.1252 41.0199 48.8205 40.9716 45.9845 40.9716C43.1955 40.9716 42.8439 41.0199 42.422 41.4542C41.8361 42.0575 41.8127 43.1675 42.3986 43.8914C42.7736 44.3741 43.1017 44.4706 44.6252 44.543C45.6095 44.5912 46.4064 44.736 46.4064 44.8325C46.4064 45.3152 45.633 46.8354 44.9767 47.6076C44.0627 48.6693 42.2345 49.2726 40.6877 49.0554C38.508 48.7176 36.3048 46.8113 35.6017 44.6636C35.2502 43.5295 35.4377 41.0681 35.9767 39.9099C36.9611 37.7864 38.8127 36.5798 41.297 36.435C42.6095 36.3385 43.0783 36.435 44.1798 36.9659C45.9142 37.7864 46.7111 37.7864 47.3205 36.9659C48.0236 36.0489 47.9298 35.4698 46.9923 34.5528C45.3986 33.0085 41.297 32.2845 38.7892 33.105Z" fill="#5178FF"/>
<path d="M59.3444 33.2017C52.735 35.6389 50.6022 44.0605 55.2428 49.4175C57.3288 51.8065 60.8678 53.1095 63.7975 52.5787C68.11 51.8065 71.2038 48.6695 71.9772 44.2777C72.7272 40.1272 70.4069 35.5665 66.5866 33.6843C65.2506 33.0086 64.735 32.9121 62.8131 32.8397C61.0788 32.7673 60.3053 32.8638 59.3444 33.2017ZM65.0631 36.9661C67.0788 37.9313 68.6725 40.4409 68.6725 42.6609C68.6725 45.0016 66.821 47.8008 64.735 48.6212C61.4772 49.9001 57.7506 48.1386 56.6022 44.8327C55.7585 42.3713 56.485 39.6928 58.4303 37.9313C59.7194 36.773 60.5631 36.4352 62.4616 36.411C63.4694 36.3869 64.196 36.5558 65.0631 36.9661Z" fill="#5178FF"/>
<path d="M73.875 33.3225C73.5938 33.6362 73.3594 34.0946 73.3594 34.3601C73.3594 34.8668 78.2344 49.5142 78.9844 51.2516C79.2891 52.0238 79.5938 52.3375 80.2031 52.5305C81.0938 52.8442 81.9609 52.6271 82.4531 51.9997C82.8984 51.4688 88.125 35.2047 88.125 34.4083C88.125 33.0329 86.5312 32.309 85.3828 33.1294C85.0312 33.3948 84.375 35.1081 82.9453 39.6447C81.8906 43.023 80.9531 45.7981 80.8828 45.7981C80.8125 45.7981 79.8516 43.1195 78.7734 39.886C77.6953 36.6284 76.6172 33.6844 76.3594 33.3707C75.75 32.5744 74.5781 32.5503 73.875 33.3225Z" fill="#5178FF"/>
<path d="M28.0078 64.6682C27.0703 65.1991 26.9531 65.5852 26.9531 68.5291C26.9531 71.28 26.9766 71.4248 27.5625 72.0281C28.0312 72.5107 28.2891 72.6072 28.8984 72.4866C30.2344 72.2211 30.4688 71.642 30.4688 68.698C30.4688 65.7541 30.2344 65.006 29.2266 64.6199C28.8516 64.4993 28.5234 64.3786 28.5 64.3786C28.4766 64.3786 28.2656 64.5234 28.0078 64.6682Z" fill="#5178FF"/>
<path d="M27.5391 77.5297C26.9766 78.0847 26.9531 78.2536 26.9531 80.9804C26.9531 83.5141 27 83.9002 27.4219 84.3587C28.125 85.1309 29.3438 85.0827 29.9766 84.2622C30.3984 83.6831 30.4688 83.2728 30.4688 80.8598C30.4688 78.2536 30.4453 78.0847 29.8828 77.5297C29.5781 77.1919 29.0391 76.9264 28.7109 76.9264C28.3828 76.9264 27.8438 77.1919 27.5391 77.5297Z" fill="#5178FF"/>
<path d="M27.4219 89.9572C27 90.3915 26.9531 90.7535 26.9531 93.3355C26.9531 96.1105 26.9766 96.2794 27.5391 96.8344C28.2656 97.6066 29.1562 97.6066 29.8828 96.8344C30.4453 96.2794 30.4688 96.1105 30.4688 93.5044C30.4688 91.0913 30.3984 90.6811 29.9766 90.102C29.3672 89.3056 28.125 89.2332 27.4219 89.9572Z" fill="#5178FF"/>
<path d="M90.9375 64.6922C90 65.1749 89.7656 65.9712 89.7656 68.6738C89.7656 71.111 89.7891 71.1834 90.4453 71.8832C91.2656 72.7037 91.8281 72.7519 92.6719 72.0763C93.2812 71.5936 93.2812 71.5454 93.2812 68.5049C93.2812 65.8747 93.2109 65.3679 92.8828 65.0542C92.25 64.4751 91.5938 64.3544 90.9375 64.6922Z" fill="#5178FF"/>
<path d="M90.4693 77.4091C89.813 78.0848 89.7193 78.7363 89.813 81.4631C89.8599 83.4177 89.9771 83.9727 90.3286 84.3829C90.9146 85.0344 92.1802 85.0586 92.813 84.407C93.2349 83.9727 93.2818 83.6107 93.2818 80.9563C93.2818 78.1572 93.2583 77.94 92.7427 77.4574C92.063 76.8058 91.0786 76.7817 90.4693 77.4091Z" fill="#5178FF"/>
<path d="M90.3286 89.9814C89.9771 90.3916 89.8599 90.9466 89.813 92.9012C89.7193 95.628 89.813 96.2795 90.4693 96.9552C91.0786 97.5826 91.8755 97.5584 92.6724 96.931C93.2818 96.4484 93.2818 96.4002 93.2818 93.4321C93.2818 90.7536 93.2349 90.3916 92.813 89.9572C92.1802 89.3057 90.9146 89.3298 90.3286 89.9814Z" fill="#5178FF"/>
</svg>
