<svg width="120" height="120" viewBox="0 0 120 120" fill="none" xmlns="http://www.w3.org/2000/svg">
<path d="M38.8166 0.310594C35.7149 0.775056 33.2163 1.63762 30.4018 3.16371C25.5482 5.85096 22.1306 10.7278 20.8095 16.8654C19.7756 21.6095 19.9192 28.3774 21.1829 34.0173C21.4701 35.3112 21.6424 36.7709 21.5849 37.2354C21.4988 37.6998 21.5849 38.861 21.786 39.7899C22.2455 41.9132 24.0261 44.1691 25.7492 44.7331C26.8119 45.1312 26.898 45.2308 27.2427 47.0223C27.8458 50.2071 29.1381 52.8944 31.4357 55.6812L33.5609 58.2357V61.8519V65.5012L27.7596 67.7572C14.1466 73.0322 8.94841 76.582 5.27233 83.184C1.42393 90.0514 -0.184356 98.08 0.0166798 109.293C0.102838 114.535 0.160277 115 0.820823 116.393C1.22289 117.189 2.11319 118.317 2.77374 118.881L4.03739 119.877L43.4117 119.976C70.8387 120.042 83.1306 119.976 83.8773 119.711C87.4098 118.55 89.0468 113.374 89.0468 103.521V98.8098H90.9422C95.2214 98.8098 96.1692 97.7814 96.1692 93.1699C96.1692 88.9898 95.2214 87.8618 91.7177 87.8618H89.8509V72.435C89.8509 58.8329 89.9083 57.0082 90.2817 57.0082C90.5402 57.0082 91.3156 56.3447 92.0049 55.5153C92.7229 54.7191 93.2972 53.8233 93.2972 53.5247C93.2972 53.0935 94.1588 53.0271 99.7878 53.0271C105.848 53.0271 106.278 53.0603 106.077 53.5911C105.991 53.9229 104.527 57.7713 102.861 62.1505C100.85 67.3591 99.4432 70.544 98.8114 71.4065L97.8349 72.7004L97.9498 75.7194C98.0934 79.3688 98.955 81.7243 100.994 84.1461C106.422 90.549 115.612 88.7575 118.944 80.6295C119.719 78.7716 119.863 77.909 119.949 75.5535C120.064 72.6672 120.064 72.6672 119.087 71.4065C118.427 70.544 116.847 66.8946 114.291 60.1599C112.195 54.6859 110.27 49.9417 110.012 49.61C109.61 49.1123 108.834 49.046 101.425 49.046C95.4799 49.046 93.2972 48.9465 93.2972 48.6479C93.2972 47.8848 91.7464 45.9606 90.5976 45.3635C89.2765 44.6668 87.4385 44.5672 86.2035 45.0981C85.1984 45.5293 83.5614 47.2877 83.2167 48.2829L82.9583 49.046H74.9743C69.0294 49.046 66.8754 49.1455 66.5021 49.4441C66.2436 49.6763 64.6066 53.5911 62.8547 58.1694C61.1028 62.7145 59.6381 66.4633 59.6094 66.5297C59.552 66.5629 58.4606 66.2311 57.1683 65.7666L54.8133 64.9372V61.9514V58.9656L56.9098 56.5769C59.3222 53.7901 60.9018 50.8375 61.7634 47.5531C62.309 45.463 62.4813 45.1312 63.6588 44.2687C65.6405 42.7757 67.1626 39.5909 67.1626 36.9036C67.1626 36.3396 67.4211 34.714 67.737 33.3206C68.656 29.1404 69.0006 23.965 68.6273 20.4152C67.3349 8.90315 61.39 2.33432 50.5054 0.443292C47.6047 -0.0875227 41.7747 -0.153869 38.8166 0.310594ZM49.5002 4.25852C58.1447 5.68509 62.9696 9.99795 64.7789 17.927C65.2958 20.2161 65.4107 27.3489 64.9512 28.7755C64.6927 29.5386 64.6353 29.5054 63.3142 27.7802C62.5675 26.785 61.4762 24.8608 60.9018 23.5337C59.954 21.3441 59.8392 20.7801 59.8392 18.5573C59.8392 17.164 59.954 15.5715 60.0689 14.9743C60.2699 14.0454 60.2125 13.78 59.552 13.017C58.7191 12.0549 58.7191 12.0549 56.0195 13.3819C50.5628 16.0028 42.2629 16.0028 33.5035 13.3487C31.9814 12.8843 30.4592 12.5857 30.1433 12.7184C29.3679 12.9838 29.1381 13.9791 29.2243 16.6995C29.3105 19.5526 28.9084 21.7422 27.7883 24.3299C26.6108 27.1167 24.3994 30.3016 23.9974 29.8371C23.5379 29.3063 23.5666 20.4152 24.0548 18.1924C25.7205 10.4624 30.89 5.61873 38.874 4.2917C41.2864 3.89359 47.1165 3.89359 49.5002 4.25852ZM38.5868 18.6569C44.5604 19.7517 50.0171 19.619 54.3538 18.2256L56.2492 17.6284V18.8227C56.2492 22.3394 58.116 26.984 61.0741 30.8656C63.745 34.3159 64.2907 36.5055 63.1419 39.06C62.6824 40.1548 60.7007 42.0791 59.6381 42.4772C59.4945 42.5435 59.1212 43.7047 58.8053 45.0649C57.599 50.2735 54.8133 54.3873 50.9361 56.7428C46.2262 59.5628 43.4691 59.6623 39.075 57.1741C34.0492 54.2878 31.0336 50.0413 30.4305 44.9322C30.1146 42.2781 29.6551 41.5482 28.0755 41.316C26.6395 41.0838 25.5769 40.3207 25.2036 39.1596C24.7728 37.9321 25.3472 35.278 26.3236 33.7519C26.7544 33.0884 27.7309 31.5955 28.5063 30.4343C31.0049 26.5859 32.6706 21.8417 32.6993 18.491V17.2966L34.3651 17.7279C35.2554 17.9933 37.1796 18.4246 38.5868 18.6569ZM89.5924 49.3114C90.3966 50.0744 90.454 51.7332 89.7073 52.6953C89.018 53.5579 87.4385 53.5579 86.6918 52.6953C84.8825 50.6053 87.5821 47.4536 89.5924 49.3114ZM83.4752 54.3541C83.8198 55.084 84.624 56.0129 85.2558 56.411L86.4046 57.1741V72.5014C86.4046 82.5205 86.3184 87.8618 86.1174 87.8618C85.9738 87.8618 85.8302 87.7291 85.8302 87.5632C85.8302 86.8665 82.2977 81.1271 80.5458 79.0038C78.7652 76.8142 78.6504 76.582 78.6504 75.1223C78.6504 73.2976 78.076 71.5393 77.3005 70.9089C76.841 70.544 74.1414 63.8756 70.5802 54.4205L70.0633 53.0271H76.439H82.8147L83.4752 54.3541ZM69.9484 62.5818C71.2407 65.9989 72.3895 69.0511 72.5044 69.3496C72.6767 69.9136 72.3034 69.9468 67.4785 69.9468C64.6066 69.9468 62.2803 69.8473 62.2803 69.6814C62.2803 69.2833 67.3062 56.3447 67.4498 56.3447C67.5359 56.3447 68.656 59.1646 69.9484 62.5818ZM111.706 63.2121L114.234 69.7809L111.505 69.8805C110.012 69.9136 107.628 69.9136 106.221 69.8805L103.665 69.7809L105.962 63.8093C107.255 60.5249 108.404 57.4727 108.547 57.0414C108.691 56.6101 108.892 56.3447 109.007 56.4774C109.093 56.5769 110.328 59.6291 111.706 63.2121ZM38.7878 61.4538C42.2629 63.2453 45.8528 63.378 49.4427 61.8851L51.3669 61.0557V63.5439C51.3669 64.8709 51.1659 67.9563 50.9074 70.3781L50.4766 74.7573L49.414 75.8189C46.7718 78.5062 43.8425 78.9707 40.8556 77.2455C38.1273 75.6862 37.7252 74.9895 37.3232 71.2075C37.036 68.2217 36.8636 60.6576 37.1221 60.6576C37.1796 60.6576 37.9263 61.0225 38.7878 61.4538ZM57.6565 70.1127C57.9724 70.2454 57.9437 70.4445 57.4554 71.0416C56.1918 72.6009 55.9333 75.0227 56.68 78.3735C57.2257 80.7622 58.1734 82.6532 59.6668 84.3783C60.3274 85.075 60.8443 85.8712 60.8443 86.0703C60.8443 86.3025 59.9828 86.8002 58.9201 87.1983C55.4738 88.5253 55.2728 89.2884 57.2831 93.1036C58.0298 94.5302 58.5181 95.7908 58.4319 96.1226C58.317 96.4212 56.7949 101.033 55.0143 106.341L51.7977 116.061H50.6777H49.5863L49.7587 114.635C49.8448 113.872 50.9074 103.819 52.0849 92.3405C53.2624 80.8285 54.325 70.9089 54.4112 70.2454L54.5548 69.0179L55.9046 69.4823C56.6513 69.7478 57.4267 70.0463 57.6565 70.1127ZM36.1169 92.5064C37.4093 104.815 38.4432 115.166 38.4432 115.464C38.4432 115.929 38.2135 116.061 37.3519 116.061H36.2893L32.9004 106.009C31.0623 100.502 29.5402 95.8904 29.5402 95.7577C29.5402 95.625 30.1146 94.3974 30.8326 93.0704C32.8142 89.2884 32.5845 88.4921 29.1956 87.2315C28.0181 86.767 27.2139 86.2694 27.1278 85.9376C26.7831 84.5442 25.2036 73.8284 25.2897 73.3639C25.3759 72.7999 33.2737 69.5155 33.5896 69.9136C33.7045 70.0132 34.8246 80.1982 36.1169 92.5064ZM75.0891 75.8189C74.8307 78.3071 74.0265 80.2313 72.5618 81.7243C70.9823 83.4162 69.6612 83.9802 67.4498 84.0134C63.228 84.0466 59.6956 79.9659 59.6956 75.0227V73.9279H67.4785H75.2902L75.0891 75.8189ZM116.56 75.3877C116.56 78.6721 114.923 81.6247 112.309 83.1176C107.226 86.0039 101.339 81.8238 101.339 75.3545V73.9279H108.949H116.56V75.3877ZM21.9296 75.3213C22.0157 75.7526 22.5327 79.0038 23.0783 82.5537C23.624 86.1035 24.2558 89.1888 24.4569 89.3879C24.6292 89.5869 25.4908 90.0182 26.3236 90.35C27.1278 90.6486 27.817 90.9472 27.817 91.0135C27.817 91.0799 27.3575 92.0088 26.8119 93.0704C26.2662 94.132 25.8067 95.1937 25.8067 95.4259C25.8067 95.6581 27.2427 100.137 28.9945 105.379C30.7751 110.62 32.2685 115.166 32.3547 115.464C32.4696 116.028 31.6942 116.061 18.8279 116.061H5.15745L4.35331 115.265L3.54916 114.469V107.369C3.54916 101.232 3.66404 99.8383 4.23843 96.8193C6.01903 87.3973 9.60895 81.293 15.4103 77.8095C17.9089 76.2834 21.0967 74.6246 21.5562 74.5914C21.6711 74.5914 21.8434 74.9232 21.9296 75.3213ZM41.028 81.6579C43.1532 82.5205 46.657 82.3214 48.4376 81.2598C49.1268 80.8617 49.7299 80.5631 49.7587 80.6295C49.8161 80.6958 49.0119 88.4921 48.0355 97.9804C47.0303 107.469 46.2262 115.431 46.1974 115.63C46.1974 115.929 45.5943 116.061 44.1009 116.061H42.0331L40.2238 98.5444C39.2186 88.9234 38.4145 80.928 38.4432 80.7622C38.4432 80.6295 38.673 80.5963 38.9602 80.729C39.2186 80.8949 40.1664 81.293 41.028 81.6579ZM79.0237 82.9518C79.713 83.9139 80.7182 85.44 81.2351 86.3357L82.1541 87.9281L81.4074 88.7575C80.3448 89.8855 80.0863 90.8145 80.0863 93.4353C80.0863 96.952 81.0915 98.3786 83.8486 98.7435L85.3994 98.9757L85.6004 101.298C85.8015 103.952 85.4281 109.658 84.8537 112.578C84.5665 113.938 84.1932 114.801 83.6762 115.298L82.9295 116.061H69.2017H55.4738L58.8627 105.909C60.7582 100.336 62.2803 95.5918 62.2803 95.3927C62.2803 95.1605 61.8208 94.132 61.2751 93.0704C60.7295 92.0088 60.2699 91.113 60.2699 91.0467C60.2699 90.9803 61.0454 90.6154 61.9644 90.2173C63.3142 89.6533 63.7163 89.3215 63.946 88.5585L64.2332 87.6296L65.8702 87.9281C69.7186 88.7244 74.6009 86.203 76.6687 82.3546C76.9846 81.7243 77.358 81.2266 77.5016 81.2266C77.6452 81.2266 78.3057 82.0228 79.0237 82.9518ZM92.7229 93.3358V94.8287H88.1277H83.5326V93.3358V91.8429H88.1277H92.7229V93.3358Z" fill="#0C1830"/>
</svg>
