<svg width="120" height="120" viewBox="0 0 120 120" fill="none" xmlns="http://www.w3.org/2000/svg">
<path d="M57.7703 0.425566C56.1636 1.05864 31.6075 14.9159 30.8401 15.6427C30.4804 15.971 29.9528 16.7213 29.6411 17.3075L29.1135 18.3861L28.9936 34.6818L28.8737 50.9775L15.9242 58.1524C6.52379 63.3576 2.66292 65.6086 1.84758 66.3823C-0.0948532 68.2346 -0.0468919 67.6719 0.0250499 85.82L0.0969917 101.623L0.720487 102.796C1.0802 103.429 1.72767 104.249 2.15932 104.601C3.47826 105.633 28.0584 119.373 29.2094 119.701C30.5044 120.1 31.9672 120.1 33.0943 119.701C33.5499 119.537 39.689 116.231 46.6913 112.315C53.7176 108.423 59.6168 105.187 59.8087 105.117C60.0005 105.023 65.7799 108.095 73.1659 112.198C80.3121 116.161 86.5471 119.537 87.0027 119.701C88.1298 120.1 89.5926 120.1 90.8876 119.701C91.9427 119.396 116.427 105.727 117.89 104.648C118.297 104.343 118.945 103.476 119.329 102.749L120 101.389V85.2103V69.0318L119.353 67.836C118.993 67.1561 118.321 66.312 117.866 65.9603C117.386 65.5851 111.175 61.9977 104.053 58.0117L91.1034 50.7431V35.0101C91.1034 17.7764 91.1034 17.8233 89.6885 16.1351C88.8972 15.2207 89.0171 15.291 73.4776 6.54526C67.6743 3.28611 62.4466 0.47246 61.871 0.284883C60.4322 -0.137165 59.0653 -0.0902707 57.7703 0.425566ZM73.5496 11.1643C84.8205 17.5185 86.4032 18.4798 86.6909 19.1364C86.9547 19.746 87.0267 22.8176 87.0267 35.3618V50.8369L84.0531 52.4782C82.4224 53.3926 81.0315 54.1429 80.9596 54.1429C80.8876 54.1429 80.7917 52.1734 80.7438 49.7349C80.6718 45.3737 80.6718 45.3502 79.9524 44.0841C78.9212 42.2787 77.8661 41.6222 73.8613 40.3795C71.9189 39.7933 70.2882 39.254 70.1683 39.2071C70.0724 39.1602 70.4081 38.6444 70.9117 38.0816C71.4153 37.5189 71.9669 36.6514 72.1107 36.1355C72.3026 35.5025 72.3985 32.5481 72.3985 26.6863C72.3985 18.2219 72.3985 18.1516 71.823 16.9558C71.1755 15.5724 69.6647 14.2359 68.3458 13.8608C67.0508 13.4622 53.0222 13.4856 51.6793 13.8608C50.3603 14.2359 48.3699 16.182 47.9863 17.4716C47.7944 18.1516 47.6985 20.9418 47.6985 26.9677C47.6985 35.057 47.7464 35.5493 48.2021 36.5576C48.4659 37.1438 48.9695 37.8941 49.3052 38.2458C49.6649 38.5975 49.9047 38.9257 49.8328 38.9961C49.7848 39.043 48.0582 39.6057 46.0198 40.2857C41.8472 41.6222 40.888 42.2318 39.9767 43.9903C39.4731 45.022 39.4252 45.5144 39.3053 49.5942L39.1854 54.0491L36.1878 52.3844L33.1902 50.7431L33.1183 35.1976C33.0703 22.161 33.1183 19.5584 33.406 19.0191C33.8617 18.175 58.9694 3.98953 60.0245 3.96608C60.5041 3.96608 64.6768 6.19356 73.5496 11.1643ZM67.6264 18.0109C68.1539 18.433 68.2019 18.6674 68.2738 21.0356L68.3698 23.5913L66.9549 23.2631C65.2043 22.8176 63.8614 23.0755 61.8231 24.2478C61.0317 24.6933 60.2403 25.0685 60.0965 25.0685C59.9286 25.0685 59.0413 24.6699 58.1301 24.2009C56.7392 23.4975 56.1636 23.3334 54.6289 23.2396C53.5018 23.1693 52.6145 23.2396 52.3028 23.4037C51.7752 23.6851 51.7752 23.6617 51.7752 21.1997C51.7752 18.8784 51.8232 18.6909 52.3747 18.1516L52.9502 17.5654H60.0005C66.5952 17.5654 67.0988 17.5889 67.6264 18.0109ZM57.7943 28.609C59.0653 29.3828 60.1444 29.9924 60.2164 29.9924C60.2643 29.9924 61.4873 29.3124 62.9262 28.4683C64.341 27.6242 65.636 26.9443 65.8038 26.9443C66.7151 26.9443 67.6504 27.5304 68.082 28.3745C68.4897 29.1014 68.5616 29.7579 68.5616 32.0088V34.7756L64.437 38.8319C62.1588 41.0594 60.1924 42.8883 60.0485 42.8883C59.9046 42.8883 58.0341 41.1532 55.8999 39.043L52.015 35.2211V32.7591C52.015 31.3992 51.9431 29.9689 51.8711 29.5938C51.7512 29.031 51.8711 28.7262 52.4946 28.0463C53.7656 26.616 54.5809 26.6863 57.7943 28.609ZM55.3483 47.5308C53.238 49.688 52.4946 51.1651 52.5186 53.0878C52.5186 54.2601 52.8064 55.2215 54.2692 58.9496C55.2284 61.3881 55.9958 63.428 55.9718 63.4749C55.9478 63.4983 53.1181 61.9742 49.7129 60.0516L43.5019 56.558V51.3762C43.5019 46.3819 43.5259 46.1709 44.0295 45.6785C44.2932 45.3971 46.4515 44.4593 48.8256 43.5917L53.0941 42.0208L55.0605 43.8965L57.0269 45.7957L55.3483 47.5308ZM76.0675 45.2565C76.4273 45.7019 76.4752 46.3585 76.4752 51.1886V56.6283L70.3362 60.075C66.9549 61.9742 64.1492 63.4983 64.1252 63.4749C64.0772 63.428 64.7967 61.5053 65.7079 59.184C68.3458 52.5485 68.2499 51.3058 64.8926 47.8825L62.9502 45.913L64.9405 43.9669L66.9309 42.0208L71.2714 43.4041C74.1251 44.2951 75.7798 44.9516 76.0675 45.2565ZM63.5257 52.7595C63.5257 53.1581 60.3363 61.9508 60.0485 62.3025C60.0245 62.326 59.2332 60.2861 58.2739 57.7772C56.955 54.3305 56.5473 53.0409 56.6912 52.572C56.7632 52.1968 57.5545 51.1886 58.4418 50.321L60.0485 48.7266L61.7991 50.4617C62.9262 51.6106 63.5257 52.3844 63.5257 52.7595ZM44.1494 61.5991C51.3196 65.5851 57.3627 68.8911 57.6025 68.9849C57.9862 69.1256 58.0101 70.1104 58.0101 85.1869V101.248L55.0366 102.889C53.4059 103.804 52.015 104.554 51.9431 104.554C51.8711 104.554 51.7752 103.218 51.7272 101.553C51.6313 98.4111 51.4155 97.6373 50.2165 96.3477C49.6889 95.785 49.6409 95.2926 48.9215 86.2655C48.4898 81.0368 48.0102 76.1129 47.8184 75.3157C45.828 66.8981 36.9552 60.966 28.514 62.4197C24.7011 63.0528 21.7275 64.5534 19.0656 67.1795C16.4997 69.6649 14.917 72.5723 14.2216 76.0425C14.0537 76.957 13.5741 81.7402 13.1664 86.6875L12.447 95.6443L11.6317 96.8167C10.6245 98.2235 10.2887 99.6772 10.2887 102.444C10.2887 103.616 10.2408 104.554 10.1928 104.554C9.90506 104.554 5.49263 102.022 4.94107 101.553L4.2936 100.943V85.3041C4.2936 70.7435 4.31758 69.6415 4.70127 69.196C5.01302 68.8443 30.7442 54.3774 31.0799 54.3774C31.1279 54.3774 37.0031 57.6365 44.1494 61.5991ZM102.254 61.6929C109.257 65.5617 115.156 68.938 115.396 69.196C115.779 69.6415 115.803 70.7669 115.803 85.4214V101.201L115.276 101.67C114.676 102.186 110.192 104.554 109.808 104.554C109.664 104.554 109.568 102.843 109.568 100.146C109.568 95.8553 109.544 95.7146 108.945 94.4954C108.034 92.7134 106.979 92.0803 102.638 90.7204C100.576 90.0639 98.7532 89.5012 98.5853 89.4308C98.3935 89.3605 98.6573 88.7743 99.4007 87.6488C101.199 84.9524 101.175 85.0931 101.175 73.9088V63.9907H91.7748C86.595 63.9907 81.9428 64.061 81.4392 64.1314C79.9764 64.3893 78.1299 65.6086 77.3145 66.8981L76.5951 68.0471L76.5232 76.1598C76.4512 85.2338 76.4273 85.0228 78.1778 87.6957C78.7054 88.4929 79.0651 89.2198 78.9452 89.3136C78.8493 89.4074 77.0507 90.0404 74.9405 90.7204C71.7271 91.7521 71.0076 92.0803 70.2642 92.8072C68.5856 94.4485 68.4417 94.9878 68.3698 100.029C68.3218 102.514 68.2259 104.554 68.13 104.554C68.034 104.531 66.6671 103.827 65.0844 102.936L62.2068 101.319L62.1348 85.2572L62.0869 69.196L65.3722 67.4374C67.1947 66.4526 73.2139 63.1232 78.7534 60.0281C84.2929 56.9331 88.9931 54.4712 89.1849 54.5181C89.3768 54.5884 95.276 57.8007 102.254 61.6929ZM34.749 66.9685C39.3293 68.1877 42.9024 71.9862 43.8616 76.6287C44.1014 77.7776 45.3963 93.7685 45.2525 93.8858C45.2045 93.9092 43.6697 93.5341 41.8232 93.0182C37.5787 91.8693 37.3868 91.7052 37.3868 89.0791C37.3868 87.4144 37.4828 87.0627 38.37 85.2807L39.3293 83.3346L39.2573 79.7003C39.1854 76.5584 39.1134 75.9018 38.6578 74.964C37.8904 73.2992 36.1878 71.6579 34.4372 70.8842C32.3749 69.9697 29.737 69.9463 27.7706 70.8373C25.8761 71.6814 24.5812 72.9241 23.6699 74.7295C22.8786 76.277 22.8786 76.3004 22.8786 79.9347V83.569L23.9337 85.7262C24.8929 87.7192 24.9649 87.9771 24.869 89.4074C24.7251 91.6349 24.3893 91.8928 20.2407 93.0417C18.3942 93.5575 16.8594 93.9561 16.8355 93.9092C16.8115 93.8858 17.0992 90.017 17.4829 85.2807C18.0824 77.9183 18.2503 76.4646 18.7539 75.0577C21.056 68.5863 27.8905 65.1162 34.749 66.9685ZM97.3383 70.9076C97.3383 73.2992 97.2904 73.604 96.9307 73.604C96.7148 73.604 94.7964 73.2758 92.6621 72.8772L88.8252 72.1268L84.8205 72.9709L80.7917 73.7916V71.5407C80.7917 69.5477 80.8637 69.2429 81.3193 68.7505L81.8229 68.2112H89.5926H97.3383V70.9076ZM33.3821 74.9171C34.7969 75.8315 35.2286 76.957 35.2286 80.0051V82.5139L34.1494 84.6242C33.1183 86.6172 33.0703 86.8282 33.0703 88.6805C33.0703 89.7356 33.2142 91.1659 33.3821 91.8224L33.7178 93.0417L32.3749 94.3313L31.008 95.6443L29.737 94.3782L28.4421 93.112L28.7298 92.0335C28.8737 91.4473 28.9936 90.0404 28.9936 88.8681C28.9936 86.8516 28.9457 86.6875 27.9145 84.6007C26.8833 82.5374 26.8354 82.3498 26.8354 80.3568C26.8354 77.6135 27.1711 76.3942 28.1783 75.4329C29.6651 74.0026 31.6315 73.7916 33.3821 74.9171ZM92.6861 76.8866C94.6525 77.2618 96.499 77.6369 96.8108 77.7073C97.3144 77.8245 97.3383 77.9183 97.3383 80.5913V83.3346L96.4271 84.8586C93.4775 89.7356 92.3264 90.9549 90.1442 91.4004C88.7053 91.7052 87.0027 91.33 85.7797 90.4156C85.3241 90.0639 84.0771 88.4929 83.0459 86.8985L81.1514 84.038L81.0315 80.9899C80.9596 79.3017 80.9356 77.8948 80.9596 77.8479C81.0075 77.7776 88.2257 76.2535 88.8492 76.2066C88.9931 76.1832 90.7197 76.488 92.6861 76.8866ZM83.2857 93.8623C85.0123 95.1519 86.3312 95.5271 89.065 95.5271C91.1753 95.5271 91.631 95.4567 92.83 94.894C93.5974 94.5423 94.6045 93.9796 95.0602 93.6279L95.8995 92.9948L100.168 94.3547C102.566 95.105 104.652 95.9022 104.964 96.1836C105.492 96.676 105.492 96.7229 105.444 101.952L105.372 107.227L97.5781 111.635C90.9835 115.363 89.6645 116.02 88.9451 115.973C88.3696 115.926 85.6598 114.543 80.2402 111.495L72.3745 107.087L72.4465 101.834C72.5184 97.2153 72.5664 96.5587 72.9501 96.1836C73.3098 95.8319 81.0795 93.1355 81.9188 93.0886C82.0867 93.0651 82.7102 93.4168 83.2857 93.8623ZM26.7155 97.0511L28.1543 98.458L25.4445 101.107L22.7587 103.734V107.673C22.7587 109.83 22.6867 111.588 22.5908 111.588C22.4709 111.588 20.6723 110.604 18.5621 109.408L14.7252 107.227L14.6532 103.429C14.5813 98.6221 14.5333 98.7159 17.6988 97.7545C21.9913 96.465 24.797 95.6678 25.0368 95.6678C25.1807 95.6443 25.9241 96.2774 26.7155 97.0511ZM42.1829 97.098C47.8424 98.669 47.5546 98.3407 47.6505 103.241L47.7225 107.063L39.8568 111.495C34.5571 114.472 31.7274 115.926 31.1519 115.973C30.5044 116.043 29.9289 115.832 28.6339 115.035L26.9553 114.003L26.8833 109.713L26.8354 105.398L31.7993 100.521C36.1878 96.207 36.8353 95.6678 37.3868 95.785C37.7226 95.8788 39.8808 96.465 42.1829 97.098Z" fill="#0C1830"/>
<path d="M70.4795 49.8053V51.7983H72.5178H74.5562V49.8053V47.8123H72.5178H70.4795V49.8053Z" fill="#0C1830"/>
<path d="M87.0273 100.451V102.444H89.0657H91.104V100.451V98.4581H89.0657H87.0273V100.451Z" fill="#0C1830"/>
<path d="M95.1797 100.451V102.444H98.2972H101.415V100.451V98.4581H98.2972H95.1797V100.451Z" fill="#0C1830"/>
<path d="M87.0273 108.54V110.65H89.0657H91.128L91.0561 108.587L90.9841 106.547L89.0177 106.477L87.0273 106.406V108.54Z" fill="#0C1830"/>
<path d="M37.3867 102.561V104.554H40.3843H43.3819V102.561V100.568H40.3843H37.3867V102.561Z" fill="#0C1830"/>
</svg>
