<svg width="288" height="288" viewBox="0 0 288 288" fill="none" xmlns="http://www.w3.org/2000/svg">
<g clip-path="url(#clip0_3_13)">
<g clip-path="url(#clip1_3_13)">
<path d="M202.549 265.585H188.308C187.446 265.654 186.641 266.045 186.055 266.68C185.468 267.316 185.143 268.148 185.143 269.013C185.143 269.878 185.468 270.711 186.055 271.346C186.641 271.981 187.446 272.373 188.308 272.442H202.549C203.411 272.373 204.216 271.981 204.802 271.346C205.389 270.711 205.714 269.878 205.714 269.013C205.714 268.148 205.389 267.316 204.802 266.68C204.216 266.045 203.411 265.654 202.549 265.585ZM99.6923 265.585H85.4505C84.5886 265.654 83.7843 266.045 83.1978 266.68C82.6113 267.316 82.2856 268.148 82.2856 269.013C82.2856 269.878 82.6113 270.711 83.1978 271.346C83.7843 271.981 84.5886 272.373 85.4505 272.442H99.6923C100.554 272.373 101.359 271.981 101.945 271.346C102.531 270.711 102.857 269.878 102.857 269.013C102.857 268.148 102.531 267.316 101.945 266.68C101.359 266.045 100.554 265.654 99.6923 265.585ZM178.286 265.585H109.714C108.805 265.585 107.933 265.946 107.29 266.589C106.647 267.232 106.286 268.104 106.286 269.013C106.286 269.922 106.647 270.795 107.29 271.437C107.933 272.08 108.805 272.442 109.714 272.442H137.04V275.87H123.429C122.519 275.87 121.647 276.231 121.004 276.874C120.361 277.517 120 278.39 120 279.299C120 280.208 120.361 281.08 121.004 281.723C121.647 282.366 122.519 282.727 123.429 282.727H166.286C167.195 282.727 168.067 282.366 168.71 281.723C169.353 281.08 169.714 280.208 169.714 279.299C169.714 278.39 169.353 277.517 168.71 276.874C168.067 276.231 167.195 275.87 166.286 275.87H150.96V272.442H178.286C179.195 272.442 180.067 272.08 180.71 271.437C181.353 270.795 181.714 269.922 181.714 269.013C181.714 268.104 181.353 267.232 180.71 266.589C180.067 265.946 179.195 265.585 178.286 265.585ZM144.111 243.299C149.198 243.304 154.172 241.8 158.404 238.978C162.637 236.155 165.937 232.141 167.887 227.443C169.837 222.745 170.35 217.574 169.361 212.584C168.371 207.594 165.924 203.01 162.329 199.411C158.734 195.812 154.152 193.361 149.164 192.366C144.175 191.372 139.003 191.88 134.303 193.825C129.603 195.771 125.585 199.067 122.759 203.296C119.932 207.525 118.423 212.498 118.423 217.585C118.427 224.399 121.134 230.933 125.95 235.753C130.766 240.574 137.297 243.288 144.111 243.299ZM144.111 198.727C147.842 198.724 151.489 199.826 154.593 201.896C157.697 203.966 160.116 206.91 161.547 210.355C162.977 213.8 163.353 217.592 162.628 221.252C161.902 224.911 160.108 228.273 157.471 230.912C154.835 233.551 151.475 235.349 147.816 236.078C144.158 236.807 140.365 236.435 136.919 235.008C133.472 233.581 130.526 231.164 128.453 228.063C126.38 224.962 125.273 221.315 125.273 217.585C125.276 212.588 127.262 207.796 130.793 204.261C134.325 200.726 139.114 198.736 144.111 198.727Z" fill="#5178FF"/>
<path d="M3.42857 258.727C5.32212 258.727 6.85714 257.192 6.85714 255.298C6.85714 253.405 5.32212 251.87 3.42857 251.87C1.53502 251.87 0 253.405 0 255.298C0 257.192 1.53502 258.727 3.42857 258.727Z" fill="black"/>
<path d="M18.8571 251.87H13.7143C12.805 251.87 11.9329 252.231 11.2899 252.874C10.6469 253.517 10.2857 254.39 10.2857 255.299C10.2857 256.208 10.6469 257.08 11.2899 257.723C11.9329 258.366 12.805 258.727 13.7143 258.727H18.8571C19.7664 258.727 20.6385 258.366 21.2815 257.723C21.9245 257.08 22.2857 256.208 22.2857 255.299C22.2857 254.39 21.9245 253.517 21.2815 252.874C20.6385 252.231 19.7664 251.87 18.8571 251.87ZM274.286 251.87H269.143C268.234 251.87 267.361 252.231 266.719 252.874C266.076 253.517 265.714 254.39 265.714 255.299C265.714 256.208 266.076 257.08 266.719 257.723C267.361 258.366 268.234 258.727 269.143 258.727H274.286C275.195 258.727 276.067 258.366 276.71 257.723C277.353 257.08 277.714 256.208 277.714 255.299C277.714 254.39 277.353 253.517 276.71 252.874C276.067 252.231 275.195 251.87 274.286 251.87Z" fill="black"/>
<path d="M284.571 258.727C286.465 258.727 288 257.192 288 255.298C288 253.405 286.465 251.87 284.571 251.87C282.678 251.87 281.143 253.405 281.143 255.298C281.143 257.192 282.678 258.727 284.571 258.727Z" fill="black"/>
<path d="M258.377 251.87H234.874V183.299H246.634C247.535 183.299 248.427 183.122 249.259 182.777C250.091 182.433 250.847 181.928 251.484 181.291C252.12 180.654 252.625 179.898 252.97 179.066C253.314 178.234 253.492 177.342 253.491 176.442V169.585C253.481 167.971 252.905 166.412 251.863 165.179C252.938 163.639 253.571 161.833 253.693 159.959C253.814 158.084 253.42 156.212 252.552 154.546C251.685 152.879 250.377 151.483 248.772 150.507C247.166 149.532 245.324 149.015 243.446 149.013H238.131L245.794 141.333C246.435 140.698 246.944 139.943 247.291 139.11C247.638 138.277 247.817 137.384 247.817 136.482C247.817 135.58 247.638 134.686 247.291 133.854C246.944 133.021 246.435 132.265 245.794 131.63L240.977 126.779C239.906 125.703 238.506 125.016 237 124.826C235.494 124.637 233.967 124.956 232.663 125.733L217.783 110.853C218.569 109.553 218.895 108.026 218.709 106.518C218.522 105.01 217.834 103.608 216.754 102.539L211.903 97.6874C210.618 96.4032 208.876 95.6817 207.06 95.6817C205.244 95.6817 203.502 96.4032 202.217 97.6874L187.68 112.225C186.403 113.516 185.687 115.26 185.687 117.076C185.687 118.892 186.403 120.636 187.68 121.927L192.531 126.779C193.599 127.854 194.996 128.542 196.5 128.731C198.003 128.921 199.527 128.602 200.829 127.825L201 127.996L180.411 148.602C179.402 149.614 178.619 150.83 178.114 152.167L168.017 123.916C169.713 123.187 171.246 122.126 172.526 120.796C175.328 117.75 176.813 113.72 176.657 109.585C176.661 106.886 176.029 104.225 174.814 101.816C173.599 99.4068 171.835 97.3172 169.663 95.716C170.507 92.1996 170.375 88.5195 169.281 85.0726C168.188 81.6257 166.174 78.5426 163.457 76.156C164.733 71.1334 164.014 65.8117 161.451 61.308C158.887 56.8043 154.679 53.4688 149.709 52.0017C146.956 48.0783 143.299 44.8755 139.047 42.6644C134.795 40.4533 130.073 39.2989 125.28 39.2989C120.487 39.2989 115.765 40.4533 111.513 42.6644C107.261 44.8755 103.604 48.0783 100.851 52.0017C95.8773 53.4641 91.6639 56.7979 89.0968 61.3024C86.5296 65.8068 85.8088 71.1311 87.0857 76.156C84.3689 78.5426 82.3551 81.6257 81.2615 85.0726C80.1679 88.5195 80.036 92.1996 80.88 95.716C77.4714 98.2424 75.1102 101.934 74.2457 106.087C73.7095 108.318 73.6289 110.634 74.0089 112.896C74.3889 115.158 75.2216 117.32 76.4571 119.253C77.9774 121.376 80.0703 123.023 82.4914 124.002L71.1257 155.87H78.3943L89.0228 126.076L102.36 123.762L112.68 155.87H119.88L113.16 134.99L125.554 126.093C125.767 125.943 125.957 125.764 126.12 125.562C126.249 125.702 126.386 125.834 126.531 125.956L137.434 134.836L130.663 155.87H137.863L148.2 123.762L161.52 126.076L172.149 155.87H184.269C184.267 155.422 184.353 154.977 184.524 154.562C184.695 154.148 184.946 153.771 185.263 153.453L205.851 132.83L210.686 137.682L192.531 155.87H202.217L215.537 142.533L215.709 142.705C214.922 144.005 214.596 145.532 214.783 147.04C214.969 148.548 215.658 149.95 216.737 151.019L216.806 151.036C216.789 151.036 216.789 151.053 216.771 151.053C215.479 152.005 214.429 153.247 213.705 154.679C212.981 156.112 212.605 157.694 212.606 159.299C212.611 160.467 212.814 161.627 213.206 162.728H41.1428C40.2423 162.727 39.3505 162.904 38.5184 163.249C37.6864 163.593 36.9303 164.099 36.2935 164.735C35.6567 165.372 35.1517 166.128 34.8071 166.96C34.4626 167.792 34.2854 168.684 34.2857 169.585V176.442C34.2854 177.342 34.4626 178.234 34.8072 179.066C35.1517 179.898 35.6568 180.654 36.2936 181.291C36.9303 181.928 37.6864 182.433 38.5184 182.777C39.3505 183.122 40.2423 183.299 41.1428 183.299H53.3486V251.87H29.6228C29.1349 251.806 28.6388 251.847 28.1679 251.99C27.6969 252.133 27.2619 252.375 26.8919 252.699C26.5219 253.024 26.2254 253.424 26.0223 253.872C25.8192 254.32 25.7142 254.807 25.7142 255.299C25.7142 255.791 25.8192 256.278 26.0223 256.726C26.2254 257.174 26.5219 257.574 26.8919 257.899C27.2619 258.223 27.6969 258.465 28.1679 258.608C28.6388 258.751 29.1349 258.792 29.6228 258.728H258.377C258.865 258.792 259.361 258.751 259.832 258.608C260.303 258.465 260.738 258.223 261.108 257.899C261.478 257.574 261.775 257.174 261.978 256.726C262.181 256.278 262.286 255.791 262.286 255.299C262.286 254.807 262.181 254.32 261.978 253.872C261.775 253.424 261.478 253.024 261.108 252.699C260.738 252.375 260.303 252.133 259.832 251.99C259.361 251.847 258.865 251.806 258.377 251.87ZM110.949 128.133L108.394 120.145L112.731 115.019L118.663 122.596L110.949 128.133ZM108.154 86.2017C108.154 86.2017 121.269 79.5331 125.451 70.156C125.451 70.156 128.589 78.9845 142.406 86.9045C142.183 98.5274 136.491 107.87 124.577 107.87C112.457 107.87 108.154 98.1674 108.154 86.2017ZM126.103 121.002L121.011 114.47C122.193 114.636 123.384 114.722 124.577 114.727C126.638 114.731 128.693 114.489 130.697 114.007L126.103 121.002ZM139.68 127.842L133.251 122.596L138.051 115.293L142.149 120.162L139.68 127.842ZM164.623 117.916C163.597 118.195 162.521 118.236 161.477 118.036C160.433 117.836 159.449 117.401 158.599 116.762C157.749 116.124 157.056 115.3 156.573 114.353C156.09 113.406 155.829 112.362 155.811 111.299C155.811 110.85 155.723 110.405 155.551 109.99C155.379 109.575 155.127 109.198 154.81 108.881C154.492 108.563 154.115 108.311 153.7 108.139C153.285 107.967 152.841 107.879 152.391 107.879C151.942 107.879 151.498 107.967 151.083 108.139C150.668 108.311 150.291 108.563 149.973 108.881C149.656 109.198 149.404 109.575 149.232 109.99C149.06 110.405 148.971 110.85 148.971 111.299C148.971 113.327 149.422 115.329 150.291 117.162L148.303 116.819L141.154 108.35C146.143 103.516 149.091 96.1617 149.246 87.0245C149.27 85.7967 148.963 84.585 148.356 83.517C147.75 82.449 146.867 81.5643 145.8 80.956C134.691 74.5788 131.931 67.9274 131.914 67.8588C131.453 66.5696 130.618 65.4471 129.516 64.6348C128.413 63.8226 127.094 63.3574 125.726 63.2988H125.451C124.127 63.2994 122.832 63.6834 121.722 64.4044C120.611 65.1254 119.733 66.1525 119.194 67.3617C116.606 73.1731 108.086 78.5217 105.034 80.0988C103.913 80.6767 102.971 81.5514 102.312 82.6275C101.653 83.7036 101.302 84.9399 101.297 86.2017C101.297 96.2131 104.023 103.945 108.994 108.83L102.24 116.819L99.9428 117.213C100.833 115.369 101.296 113.347 101.297 111.299C101.297 110.39 100.936 109.517 100.293 108.874C99.6499 108.231 98.7779 107.87 97.8686 107.87C96.9592 107.87 96.0872 108.231 95.4442 108.874C94.8012 109.517 94.44 110.39 94.44 111.299C94.4408 113.109 93.724 114.846 92.4467 116.128C91.1694 117.411 89.4358 118.135 87.6256 118.142C85.8154 118.149 84.0764 117.438 82.7895 116.165C81.5026 114.892 80.7728 113.16 80.76 111.35C80.7428 110.802 80.7428 110.219 80.7428 109.585C80.7428 103.996 84.6171 100.619 89.64 98.6817C88.0541 96.4727 87.1972 93.8238 87.1886 91.1045C87.2108 88.4261 88.0408 85.8166 89.5701 83.6175C91.0994 81.4184 93.2567 79.732 95.76 78.7788C94.1696 76.5731 93.3175 73.921 93.3257 71.2017C93.3607 67.9481 94.5816 64.819 96.7593 62.4014C98.9371 59.9839 101.922 58.4439 105.154 58.0703C107.131 54.4632 110.042 51.4541 113.581 49.358C117.12 47.2619 121.158 46.1559 125.271 46.1559C129.385 46.1559 133.422 47.2619 136.962 49.358C140.501 51.4541 143.411 54.4632 145.389 58.0703C148.623 58.4431 151.61 59.9824 153.79 62.3997C155.971 64.817 157.195 67.9464 157.234 71.2017C157.237 73.9227 156.379 76.5748 154.783 78.7788C157.288 79.7291 159.447 81.4148 160.977 83.6145C162.507 85.8143 163.335 88.4252 163.354 91.1045C163.346 93.8238 162.489 96.4727 160.903 98.6817C162.168 99.1217 163.372 99.7208 164.486 100.465C166.104 101.453 167.435 102.849 168.347 104.512C169.258 106.175 169.718 108.048 169.68 109.945C169.646 113.322 168.12 116.939 164.623 117.916ZM243.446 155.87C244.355 155.87 245.227 156.231 245.87 156.874C246.513 157.517 246.874 158.39 246.874 159.299C246.874 160.208 246.513 161.08 245.87 161.723C245.227 162.366 244.355 162.727 243.446 162.727H222.891C222.079 162.729 221.293 162.441 220.673 161.915C220.053 161.39 219.64 160.661 219.508 159.859C219.376 159.058 219.534 158.235 219.953 157.539C220.372 156.843 221.024 156.318 221.794 156.059C222.147 155.935 222.518 155.872 222.891 155.87H243.446ZM236.126 131.63L240.977 136.482L228.429 149.013H224.434L221.589 146.167L236.126 131.63ZM197.383 121.927H197.366L192.531 117.076L207.051 102.539L211.903 107.39L197.383 121.927ZM205.851 123.145L213.12 115.876L227.64 130.413L220.389 137.682L205.851 123.145ZM41.1428 176.442V169.585H246.634V176.442H41.1428ZM228.034 197.87H169.954C171.58 199.981 172.939 202.284 174 204.727H228.034V228.727H174.651C173.774 231.14 172.618 233.441 171.206 235.585H228.034V251.87H60.1886V235.585H117.017C115.605 233.441 114.449 231.14 113.571 228.727H60.1886V204.727H114.223C115.284 202.284 116.643 199.981 118.269 197.87H60.1886V183.299H228.034V197.87ZM29.6652 26.0131C30.6824 26.0131 31.6767 25.7115 32.5224 25.1464C33.3682 24.5813 34.0273 23.7781 34.4166 22.8384C34.8058 21.8986 34.9077 20.8646 34.7092 19.867C34.5108 18.8693 34.021 17.953 33.3017 17.2337C32.5825 16.5145 31.6661 16.0247 30.6685 15.8262C29.6709 15.6278 28.6368 15.7296 27.6971 16.1189C26.7574 16.5081 25.9542 17.1673 25.3891 18.0131C24.824 18.8588 24.5223 19.8531 24.5223 20.8703C24.5239 22.2338 25.0662 23.541 26.0304 24.5051C26.9945 25.4692 28.3017 26.0116 29.6652 26.0131ZM29.6652 18.2988C30.1738 18.2988 30.6709 18.4497 31.0938 18.7322C31.5167 19.0148 31.8463 19.4164 32.0409 19.8862C32.2355 20.3561 32.2864 20.8731 32.1872 21.3719C32.088 21.8707 31.8431 22.3289 31.4835 22.6886C31.1238 23.0482 30.6657 23.2931 30.1669 23.3923C29.668 23.4915 29.151 23.4406 28.6812 23.246C28.2113 23.0513 27.8097 22.7218 27.5271 22.2989C27.2446 21.876 27.0938 21.3789 27.0938 20.8703C27.0944 20.1885 27.3656 19.5348 27.8477 19.0527C28.3298 18.5707 28.9834 18.2995 29.6652 18.2988ZM230.571 46.156C229.893 46.156 229.23 46.3571 228.667 46.7338C228.103 47.1105 227.663 47.646 227.404 48.2725C227.144 48.899 227.076 49.5884 227.209 50.2534C227.341 50.9185 227.668 51.5294 228.147 52.0089C228.627 52.4884 229.237 52.815 229.903 52.9473C230.568 53.0795 231.257 53.0117 231.883 52.7522C232.51 52.4927 233.045 52.0532 233.422 51.4894C233.799 50.9255 234 50.2627 234 49.5846C233.999 48.6756 233.637 47.8041 232.995 47.1613C232.352 46.5186 231.48 46.157 230.571 46.156ZM230.571 51.2988C230.232 51.2988 229.901 51.1983 229.619 51.0099C229.337 50.8216 229.117 50.5538 228.988 50.2406C228.858 49.9273 228.824 49.5827 228.89 49.2501C228.956 48.9176 229.119 48.6121 229.359 48.3724C229.599 48.1326 229.904 47.9694 230.237 47.9032C230.57 47.8371 230.914 47.871 231.227 48.0008C231.541 48.1305 231.808 48.3502 231.997 48.6322C232.185 48.9141 232.286 49.2455 232.286 49.5846C232.285 50.0391 232.105 50.4749 231.783 50.7962C231.462 51.1176 231.026 51.2984 230.571 51.2988ZM173.143 44.4417C172.465 44.4417 171.802 44.6428 171.238 45.0195C170.674 45.3963 170.235 45.9317 169.975 46.5582C169.716 47.1847 169.648 47.8741 169.78 48.5392C169.912 49.2042 170.239 49.8151 170.718 50.2946C171.198 50.7741 171.809 51.1007 172.474 51.233C173.139 51.3653 173.828 51.2974 174.455 51.0379C175.081 50.7784 175.617 50.3389 175.994 49.7751C176.37 49.2113 176.571 48.5484 176.571 47.8703C176.57 46.9613 176.209 46.0898 175.566 45.4471C174.923 44.8043 174.052 44.4427 173.143 44.4417ZM173.143 49.5846C172.804 49.5846 172.472 49.484 172.19 49.2957C171.909 49.1073 171.689 48.8396 171.559 48.5263C171.429 48.2131 171.395 47.8684 171.462 47.5358C171.528 47.2033 171.691 46.8978 171.931 46.6581C172.17 46.4183 172.476 46.2551 172.808 46.1889C173.141 46.1228 173.486 46.1567 173.799 46.2865C174.112 46.4162 174.38 46.636 174.568 46.9179C174.757 47.1998 174.857 47.5312 174.857 47.8703C174.857 48.3248 174.676 48.7606 174.355 49.082C174.033 49.4034 173.597 49.5841 173.143 49.5846ZM281.143 41.5846C280.465 41.5846 279.802 41.7857 279.238 42.1624C278.674 42.5391 278.235 43.0746 277.975 43.7011C277.716 44.3276 277.648 45.0169 277.78 45.682C277.912 46.3471 278.239 46.958 278.718 47.4375C279.198 47.917 279.809 48.2435 280.474 48.3758C281.139 48.5081 281.828 48.4402 282.455 48.1807C283.081 47.9212 283.617 47.4818 283.994 46.918C284.37 46.3541 284.571 45.6913 284.571 45.0131C284.57 44.1042 284.209 43.2327 283.566 42.5899C282.923 41.9472 282.052 41.5856 281.143 41.5846ZM281.143 46.7274C280.804 46.7274 280.472 46.6269 280.19 46.4385C279.909 46.2502 279.689 45.9824 279.559 45.6692C279.429 45.3559 279.395 45.0112 279.462 44.6787C279.528 44.3462 279.691 44.0407 279.931 43.801C280.17 43.5612 280.476 43.3979 280.808 43.3318C281.141 43.2657 281.486 43.2996 281.799 43.4294C282.112 43.5591 282.38 43.7788 282.568 44.0607C282.757 44.3427 282.857 44.6741 282.857 45.0131C282.857 45.4677 282.676 45.9034 282.355 46.2248C282.033 46.5462 281.597 46.727 281.143 46.7274ZM49.6652 68.4417C49.6652 67.7636 49.4641 67.1007 49.0874 66.5369C48.7106 65.9731 48.1752 65.5336 47.5487 65.2741C46.9222 65.0146 46.2328 64.9467 45.5677 65.079C44.9027 65.2113 44.2917 65.5378 43.8122 66.0173C43.3328 66.4968 43.0062 67.1077 42.8739 67.7728C42.7416 68.4379 42.8095 69.1273 43.069 69.7538C43.3285 70.3803 43.768 70.9157 44.3318 71.2925C44.8956 71.6692 45.5585 71.8703 46.2366 71.8703C47.1456 71.8692 48.0171 71.5077 48.6598 70.8649C49.3026 70.2222 49.6641 69.3507 49.6652 68.4417ZM44.5223 68.4417C44.5223 68.1027 44.6229 67.7712 44.8112 67.4893C44.9996 67.2074 45.2673 66.9877 45.5806 66.8579C45.8938 66.7282 46.2385 66.6942 46.5711 66.7604C46.9036 66.8265 47.209 66.9898 47.4488 67.2295C47.6885 67.4693 47.8518 67.7747 47.918 68.1073C47.9841 68.4398 47.9502 68.7845 47.8204 69.0977C47.6907 69.411 47.4709 69.6787 47.189 69.8671C46.9071 70.0555 46.5757 70.156 46.2366 70.156C45.7821 70.1555 45.3463 69.9748 45.0249 69.6534C44.7035 69.332 44.5228 68.8962 44.5223 68.4417Z" fill="black"/>
<path d="M18.6651 116.462L21.2143 113.109L19.6045 112.197L17.9674 115.951H17.9143L16.2514 112.222L14.6143 113.162L17.136 116.434V116.489L13.1914 115.978V117.802L17.1617 117.293V117.346L14.6143 120.619L16.1417 121.584L17.8868 117.802H17.94L19.5497 121.557L21.24 120.591L18.6651 117.372V117.319L22.7143 117.802V115.978L18.6651 116.515V116.462Z" fill="#5178FF"/>
<path d="M122.023 10.5497L120.555 12.4337L121.435 12.9908L122.439 10.812H122.47L123.398 12.9754L124.37 12.42L122.889 10.5651V10.5343L125.22 10.812V9.76284L122.889 10.0714V10.0406L124.356 8.11027L123.429 7.58398L122.486 9.7457H122.455L121.498 7.59941L120.555 8.14113L122.007 10.0251V10.056L119.736 9.76284V10.812L122.023 10.5188V10.5497Z" fill="#5178FF"/>
<path d="M246.614 97.0457V95.256L242.643 95.7823V95.7291L245.143 92.4411L243.564 91.548L241.959 95.2303H241.906L240.276 91.5737L238.67 92.4943L241.143 95.7034V95.7566L237.274 95.256V97.0457L241.169 96.5469V96.5983L238.67 99.8074L240.168 100.755L241.881 97.0457H241.932L243.511 100.728L245.169 99.7817L242.643 96.624V96.5726L246.614 97.0457Z" fill="#5178FF"/>
<path d="M232.128 8.87999L234.285 6.04456L232.923 5.27313L231.538 8.4497H231.492L230.086 5.29542L228.701 6.08913L230.835 8.8577V8.90399L227.498 8.47199V10.0148L230.858 9.58456V9.62913L228.701 12.3977L229.994 13.2154L231.471 10.0148H231.514L232.877 13.1931L234.307 12.3754L232.128 9.65142V9.60685L235.555 10.0148V8.47199L232.128 8.92627V8.87999Z" fill="#5178FF"/>
</g>
</g>
<defs>
<clipPath id="clip0_3_13">
<rect width="288" height="288" fill="white"/>
</clipPath>
<clipPath id="clip1_3_13">
<rect width="288" height="288" fill="white"/>
</clipPath>
</defs>
</svg>
