<svg width="120" height="120" viewBox="0 0 120 120" fill="none" xmlns="http://www.w3.org/2000/svg">
<path d="M55.6784 0.365331C50.7292 1.30309 46.8067 3.95226 43.0948 8.8755C41.094 11.5247 40.3306 12.2983 38.3562 13.7284C35.0392 16.0962 33.5123 19.0971 33.7492 22.5902C33.8545 24.0906 34.0652 24.7002 34.9865 26.2944C35.5657 27.3494 36.0659 28.2871 36.0659 28.3809C36.0659 28.4747 35.7237 29.0608 35.3024 29.6703C33.7756 31.9209 33.3017 34.828 34.0652 37.3834L34.4337 38.6025L32.9332 39.9153C32.0907 40.6421 31.0904 41.7674 30.6428 42.4004L29.8794 43.5726H16.6377C2.42194 43.5726 2.6852 43.5492 1.39525 44.7917C0.0789764 46.0342 0 46.5969 0 53.7707C0 59.2566 0.0789764 60.6164 0.394882 61.3197C0.947717 62.4919 1.50055 63.0077 2.76417 63.5234C3.68556 63.8985 4.52798 63.9689 9.13494 63.9689H14.4527L14.5317 77.1444L14.6106 90.3434L15.3477 91.4452C16.0059 92.4768 18.0066 93.9772 18.6648 93.9772C18.849 93.9772 18.9543 94.868 18.9543 96.5326V99.088L14.9529 99.1817C10.5828 99.299 9.74042 99.4865 7.92396 100.752C7.39746 101.128 6.60769 101.995 6.18648 102.698C5.52835 103.777 5.39672 104.246 5.31774 106.215L5.21244 108.512H4.50165C3.60659 108.536 1.84278 109.263 1.2373 109.872C0.394882 110.693 0.0263255 112.052 0.0263255 114.256C0.0263255 117.421 0.684462 118.711 2.76417 119.555C3.76454 119.977 5.29142 120 34.8286 120C54.2041 120 66.0243 119.906 66.3138 119.766C66.5771 119.648 66.9457 119.25 67.1036 118.851C67.3669 118.289 67.3669 118.054 67.0246 117.468C66.814 117.093 66.4191 116.718 66.2085 116.624C65.9716 116.554 63.3654 116.483 60.4169 116.483H55.0465L54.9676 113.881C54.8886 111.396 54.9149 111.302 55.4151 111.443C60.7328 112.873 64.8396 113.436 70.0257 113.436C74.1062 113.436 76.1332 113.201 80.0557 112.357C84.9523 111.279 86.7424 110.154 86.7424 108.208C86.7161 107.622 84.8206 101.737 82.1881 94.0475C79.6872 86.7799 77.6601 80.7548 77.6601 80.661C77.6601 80.5438 78.2393 80.1218 78.9237 79.7232C79.6345 79.3247 80.7139 78.5041 81.3194 77.918C82.1354 77.1209 82.6093 76.8631 83.1885 76.8631C84.6364 76.8631 85.4261 76.3707 88.9011 73.2996L92.3761 70.205L99.6945 72.7369C106.539 75.1048 109.514 76.277 109.514 76.6052C109.514 76.699 108.145 77.9649 106.487 79.4419C103.038 82.4896 101.616 84.2714 100.616 86.7564C99.9841 88.3272 99.9315 88.8429 99.8262 92.9691L99.7209 97.4703L100.379 98.0564C101.248 98.8301 102.248 98.8301 103.064 98.0799C103.696 97.5172 103.722 97.4234 103.722 93.8131C103.722 87.7411 104.328 86.4282 109.198 82.0207L112.41 79.0902L112.989 79.6763C113.91 80.6375 115.279 83.4508 115.7 85.1857C116.016 86.522 116.095 89.429 116.095 101.128C116.095 113.717 116.043 115.499 115.674 115.968C115.279 116.483 115.174 116.483 109.488 116.483H103.722V110.529C103.722 104.879 103.696 104.55 103.169 103.964C102.459 103.167 101.3 103.144 100.432 103.941L99.7735 104.504V110.505V116.483H86.7951H73.7903L73.2374 117.023C72.474 117.749 72.474 118.828 73.2638 119.484L73.8693 120H94.798C114.437 120 115.753 119.953 116.753 119.555C118.122 119.015 119.412 117.679 119.781 116.483C119.991 115.804 120.044 110.833 119.965 100.237C119.86 83.4743 119.912 84.0838 118.201 80.7079C116.648 77.6367 113.594 74.5187 110.672 72.9948C109.961 72.6197 103.222 70.1815 95.6931 67.6027L82.0038 62.8904L81.9512 60.546L81.8985 58.2251L83.715 56.7481L85.5051 55.2712L86.9267 56.6075C89.7962 59.3504 93.1132 60.6867 96.983 60.6867C103.248 60.6867 108.487 57.0529 110.04 51.6842C110.672 49.5039 110.699 48.238 110.172 46.0811C109.672 43.9008 108.382 41.8612 106.408 40.1029L104.749 38.6025L105.197 37.0552C105.907 34.4529 105.302 31.4755 103.591 29.2483L102.88 28.3575L103.828 26.9977C105.46 24.6064 105.907 22.1214 105.17 19.5425C104.407 16.9637 103.617 16.0025 99.5892 12.7438C98.8258 12.1342 97.3516 10.5166 96.2985 9.13338C93.9556 6.06222 91.7969 4.02259 89.296 2.52218C84.847 -0.126992 78.7658 -0.713092 72.9215 0.927987C69.6309 1.8423 69.5782 1.86575 67.3405 1.23276C62.8126 -0.0566605 59.206 -0.314544 55.6784 0.365331ZM63.0495 3.83504C64.0499 4.02259 65.6557 4.42114 66.6034 4.70247C68.7358 5.33546 70.7102 5.33546 72.7899 4.67903C79.3713 2.56907 84.8996 3.34272 89.2696 6.95309C90.1121 7.63297 91.6389 9.32093 92.692 10.7041C94.0082 12.439 95.5351 14.0332 97.6675 15.9321C100.511 18.3938 100.827 18.7454 101.221 20.0114C101.801 21.7462 101.616 23.317 100.669 24.7705C99.2733 26.9508 99.1154 27.3025 99.1417 28.334C99.1417 29.1077 99.4576 29.8579 100.274 31.1707C101.616 33.351 101.853 34.7342 101.248 36.5863C100.458 39.0479 100.853 40.1967 103.222 42.2128C104.301 43.1272 105.065 44.0649 105.644 45.1433C106.381 46.55 106.487 46.972 106.487 48.7303C106.487 50.512 106.408 50.8871 105.618 52.2938C103.907 55.4118 100.8 57.1701 97.0093 57.1701C94.0872 57.1701 92.4287 56.5371 90.2437 54.5913C89.2696 53.7238 88.4009 52.7392 88.3219 52.411C88.1903 51.9655 88.3483 51.3091 88.8221 50.301C90.2437 47.2768 90.349 46.4328 90.4806 37.3599C90.5859 31.4052 90.5333 28.6153 90.2963 27.912C89.8751 26.4585 89.059 26.0834 85.742 25.9193C82.3987 25.7552 79.5029 25.0284 75.3435 23.2936C70.289 21.207 68.6568 21.2539 63.1285 23.5514C59.3639 25.1222 56.7577 25.7552 53.3091 25.9193C51.8612 25.9896 50.3606 26.2006 49.9657 26.3882C48.4125 27.068 48.3862 27.2556 48.4915 37.3365C48.5968 45.9404 48.6495 46.5969 49.2023 48.2145C49.5182 49.1757 50.071 50.4417 50.4133 51.0747L51.0451 52.2L50.2553 53.2784C48.7021 55.3649 45.9379 56.9122 43.3844 57.0998L41.8575 57.2404V52.3407C41.8575 47.0892 41.6995 46.1046 40.6202 44.9792C39.5935 43.9008 38.6984 43.5726 36.5924 43.5726C35.592 43.5726 34.7496 43.5023 34.7496 43.4085C34.7496 43.3147 35.4341 42.6348 36.2765 41.9315C38.2246 40.2904 38.6984 39.001 38.0403 37.1255C37.2769 34.8749 37.6454 32.7884 39.1196 30.8894C39.6725 30.1861 39.8831 29.5765 39.9621 28.545C40.0674 27.2556 40.0147 27.068 38.9617 25.5207C37.9876 24.1141 37.8297 23.6218 37.6981 22.2386C37.5928 20.7382 37.6454 20.4568 38.3825 19.1205C39.0143 17.9952 39.5935 17.3622 40.8834 16.4479C42.8579 15.0413 44.3321 13.5174 46.5697 10.5869C51.0187 4.74936 56.3365 2.56907 63.0495 3.83504ZM73.8429 26.5288C77.7654 28.2637 82.7146 29.5062 85.7157 29.5062H86.6108V36.3987C86.6108 43.9008 86.3738 46.128 85.3998 48.4724C83.5307 52.8564 79.2133 56.4199 74.1062 57.7797C72.1581 58.2954 67.6301 58.3658 65.5504 57.8969C62.0228 57.1232 58.153 54.9664 56.1785 52.6689C54.599 50.8168 54.0725 49.9728 53.2564 47.9097L52.5193 46.0342L52.4403 37.7585L52.3613 29.5062H53.3617C56.3628 29.5062 61.7332 28.1699 65.4188 26.5054C67.9197 25.3801 68.3409 25.2863 70.0257 25.3801C71.1051 25.4504 72.1054 25.7552 73.8429 26.5288ZM8.6874 53.7707V60.4523H6.47606C4.71226 60.4523 4.2384 60.3819 4.10677 60.0772C3.89617 59.5848 3.89617 47.4409 4.1331 47.2533C4.21207 47.1595 5.29142 47.0892 6.50239 47.0892H8.6874V53.7707ZM29.2213 53.7707V60.4523H20.9287H12.6362V53.7707V47.0892H20.9287H29.2213V53.7707ZM37.7507 47.4643C37.8297 47.6753 37.9087 50.5355 37.9087 53.8645C37.9087 58.2485 37.8297 59.9599 37.5928 60.1709C37.4085 60.3351 36.4608 60.4523 35.2235 60.4523H33.1701V53.7707V47.0892H35.3814C37.1452 47.0892 37.6191 47.1595 37.7507 47.4643ZM55.2571 56.9591L56.8893 58.2954L56.8104 60.5695L56.7314 62.867L43.1474 67.6027C35.671 70.205 29.116 72.5494 28.5895 72.8307C28.0366 73.112 27.5628 73.3465 27.4838 73.3465C27.4311 73.3465 27.3785 71.2365 27.3785 68.6811V63.9923L32.9858 63.922C38.5931 63.8516 38.6195 63.8516 39.6725 63.2187C40.3306 62.8201 40.9361 62.2106 41.2257 61.6245C41.6995 60.7102 41.7259 60.6867 43.0685 60.6867C46.0696 60.6867 49.8341 59.0691 52.1244 56.7716C52.7826 56.1151 53.388 55.5994 53.467 55.6228C53.546 55.6228 54.3621 56.2324 55.2571 56.9591ZM64.0762 61.1321C68.104 62.0934 72.395 61.9996 76.0016 60.8977C76.8177 60.6633 77.5811 60.4523 77.7128 60.4523C77.8181 60.4523 77.9234 61.0618 77.9234 61.8355C77.9234 62.5857 78.055 63.5234 78.213 63.9454C78.5025 64.6722 78.4499 64.7425 76.923 66.1726C75.7384 67.2745 75.2382 67.9309 75.0012 68.728C74.7117 69.7595 74.659 69.8064 73.3691 70.0878C71.6579 70.4629 67.1563 70.416 65.4188 70.0174C64.4447 69.783 64.0762 69.5954 64.0235 69.2438C63.8129 67.9309 63.5497 67.5324 62.1544 66.2195L60.6275 64.7894L60.7592 62.6091C60.8645 60.5226 60.9171 60.4054 61.4436 60.5226C61.7332 60.5929 62.9179 60.8508 64.0762 61.1321ZM23.4297 76.6052C23.4297 89.1243 23.4297 89.2415 22.8768 89.851C22.0871 90.7419 21.192 90.9998 20.0863 90.6716C18.4015 90.1792 18.4278 90.4371 18.4278 76.5114V63.9689H20.9287H23.4297V76.6052ZM58.4952 67.884C59.3376 68.6342 60.0221 69.3844 60.0221 69.572C60.0221 69.9705 56.3628 73.3465 55.9416 73.3465C55.81 73.3465 54.52 72.3149 53.1248 71.0724L50.5449 68.7749L53.6513 67.6965C55.3361 67.0869 56.784 66.5946 56.863 66.5712C56.9157 66.5477 57.6528 67.1573 58.4952 67.884ZM88.164 68.8218C88.3483 68.939 83.3727 73.3465 83.0568 73.3465C82.8989 73.3465 81.8459 72.5025 80.6875 71.4709L78.6078 69.5954L80.2663 68.095L81.9248 66.618L84.9786 67.673C86.6898 68.2591 88.1113 68.7749 88.164 68.8218ZM50.0184 73.2527C53.2564 76.1597 54.3621 76.8631 55.6784 76.8631C56.1522 76.8631 56.784 77.2382 57.6791 78.0587C58.7321 78.9965 60.101 79.9108 61.2857 80.5203C61.3383 80.5438 59.2849 86.6158 56.7314 94.0475C54.2041 101.456 52.1244 107.809 52.1244 108.161C52.1244 108.7 52.0454 108.77 51.5453 108.653C51.203 108.583 50.6765 108.512 50.3869 108.512C49.8341 108.512 49.8078 108.372 49.7025 106.098C49.6235 104.011 49.5182 103.566 48.9127 102.605C47.4122 100.354 45.3061 99.3458 41.6732 99.1817L39.2249 99.0645V95.0556C39.1986 86.8736 38.3825 84.9044 32.7226 79.6763C30.9324 78.0353 29.4845 76.6286 29.4845 76.5583C29.4845 76.4645 29.8794 76.2301 30.3533 75.9956C31.4853 75.433 45.8326 70.3456 46.3328 70.3222C46.5434 70.2987 48.2019 71.6351 50.0184 73.2527ZM64.8923 73.4871C67.5511 74.0263 72.2371 73.9795 74.7643 73.3699L76.7387 72.901L77.9234 73.956L79.108 75.011L77.9234 75.9722C76.2912 77.2616 73.4217 78.4573 71.342 78.7151C67.4195 79.184 63.2338 78.0353 60.8118 75.8081L59.9168 74.9875L61.0751 73.9326C61.7595 73.2996 62.3914 72.9245 62.6546 72.9948C62.8652 73.0417 63.8919 73.2761 64.8923 73.4871ZM32.7226 84.9044C34.8023 87.4597 35.0918 88.4678 35.2235 94.1413L35.3288 99.1349H29.116H22.9032V96.6029V94.0944L24.1141 93.5317C25.4567 92.8988 26.6414 91.5156 27.0889 90.1089C27.2469 89.5697 27.3785 87.1784 27.3785 84.4824V79.7936L29.4845 81.6691C30.6428 82.7006 32.1171 84.1541 32.7226 84.9044ZM67.5511 82.2317C68.9201 82.3724 70.3416 82.3724 71.7106 82.2317C72.8426 82.1145 73.8166 82.0442 73.8956 82.0911C74.0535 82.2317 82.662 107.411 82.662 107.739C82.662 108.114 76.7914 109.685 76.4755 109.403C76.4228 109.356 76.1332 107.598 75.8173 105.488C75.5278 103.378 75.1592 101.432 75.0012 101.198C74.6064 100.541 73.5007 100.237 72.632 100.541C71.3683 101.01 71.2894 101.667 71.8685 105.699C72.1581 107.692 72.395 109.474 72.395 109.614C72.395 109.849 71.6316 109.919 69.4992 109.919H66.6034V109.263C66.6298 108.911 66.8404 107.153 67.1036 105.348C67.3932 103.402 67.4985 101.854 67.3669 101.55C67.051 100.799 65.9979 100.26 65.2082 100.424C63.9182 100.729 63.7076 101.198 63.1285 105.371C62.8389 107.551 62.5756 109.356 62.5493 109.38C62.4703 109.474 57.6001 108.372 56.8367 108.09L56.1522 107.833L60.0747 96.3919C62.2334 90.1089 64.2341 84.2479 64.5237 83.357C64.8133 82.4896 65.1292 81.8332 65.2608 81.8801C65.3661 81.9504 66.3928 82.0911 67.5511 82.2317ZM44.3058 103.214C45.4378 103.894 45.8063 104.761 45.8063 106.754V108.512H27.4838H9.16126L9.24024 106.543C9.34554 104.832 9.42452 104.48 10.0037 103.941C11.3463 102.628 10.9514 102.651 27.905 102.722C42.8052 102.769 43.595 102.792 44.3058 103.214ZM50.9398 114.256V116.366L27.6681 116.437C9.21391 116.483 4.3437 116.437 4.15942 116.202C3.92249 115.85 3.86984 112.943 4.10677 112.404C4.26473 112.052 6.50239 112.029 27.6154 112.076L50.9398 112.146V114.256Z" fill="#0C1830"/>
</svg>
