<svg width="120" height="120" viewBox="0 0 120 120" fill="none" xmlns="http://www.w3.org/2000/svg">
<path d="M29.8435 17.6668C13.6662 27.4037 0.31699 35.5016 0.197158 35.6703C-0.138371 36.2246 -0.0425054 36.8272 0.460788 37.3333C0.916149 37.7912 1.25168 37.8153 5.49372 37.8153H10.0473V41.0208C10.0473 44.7323 10.1911 45.0456 11.9167 45.0456H12.9233V72.7619V100.478H11.8688C10.1672 100.478 10.0473 100.719 10.0473 104.479V107.708H6.50031C3.33675 107.708 2.88139 107.757 2.54586 108.142C2.18637 108.528 2.13843 109.299 2.13843 113.902C2.13843 118.723 2.18637 119.229 2.56983 119.59C2.97725 119.976 7.31517 120 60.0891 120H117.153L117.512 119.47C117.824 119.012 117.896 118.048 117.896 113.806C117.896 107.251 118.231 107.708 113.462 107.708H109.987V104.624C109.987 100.912 109.819 100.55 108.118 100.43L106.991 100.358L106.919 72.6896L106.871 45.0456H108.046C109.819 45.0456 109.987 44.6841 109.987 40.9003V37.8153L114.565 37.7671L119.166 37.6948L119.645 37.0441C120.101 36.4416 120.101 36.3452 119.741 35.8149C119.454 35.357 88.0099 16.3172 62.6774 1.25398C61.4791 0.555054 60.2568 -0.0233688 59.9213 0.000732422C59.5378 0.000732422 47.4828 7.08645 29.8435 17.6668ZM86.8834 18.9683L113.294 34.8027L86.7396 34.875C72.1202 34.8991 48.1299 34.8991 33.4145 34.875L6.66807 34.8027L33.2228 18.8478C47.8183 10.075 59.9213 2.96516 60.113 3.01337C60.3048 3.08567 72.3359 10.2437 86.8834 18.9683ZM23.7081 40.1049V42.3945H18.1959H12.6836V40.1049V37.8153H18.1959H23.7081V40.1049ZM93.4502 40.9967C93.4502 44.7082 93.594 45.0456 95.2956 45.0456H96.3262V72.7619V100.478H95.2717C93.5701 100.478 93.4502 100.719 93.4502 104.479V107.708H60.0172H26.5841V104.624C26.5841 100.912 26.4163 100.55 24.7147 100.43L23.5883 100.358L23.5164 72.6896L23.4685 45.0456H24.6428C26.4163 45.0456 26.5841 44.6841 26.5841 40.9003V37.8153H60.0172H93.4502V40.9967ZM107.111 40.1049V42.3945H101.599H96.0865V40.1049V37.8153H101.599H107.111V40.1049ZM20.8322 72.7619V100.478H18.3157H15.7993V72.7619V45.0456H18.3157H20.8322V72.7619ZM104.235 72.7619V100.478H101.719H99.2021V72.7619V45.0456H101.719H104.235V72.7619ZM23.7081 105.419V107.708H18.1959H12.6836V105.419V103.129H18.1959H23.7081V105.419ZM107.111 105.419V107.708H101.599H96.0865V105.419V103.129H101.599H107.111V105.419ZM115.02 113.854V117.349H59.8973H4.77473V114.023C4.77473 112.191 4.84663 110.601 4.9425 110.528C5.01439 110.432 29.8196 110.36 60.0651 110.36H115.02V113.854Z" fill="#0C1830"/>
<path d="M46.9556 17.6428L46.3565 17.9561L46.2846 23.5957C46.2367 29.139 46.2367 29.2595 46.74 29.6692C47.2193 30.0789 48.2019 30.103 60.0413 30.103C72.5277 30.103 72.8393 30.103 73.3186 29.621C73.774 29.1631 73.798 28.8257 73.798 23.7644C73.798 20.8241 73.7021 18.2935 73.6062 18.1489C73.1029 17.3777 72.36 17.3295 59.9694 17.3295C50.4547 17.3295 47.411 17.4018 46.9556 17.6428ZM71.1617 23.7162V27.2109H60.0173H48.873V23.7162V20.2216H60.0173H71.1617V23.7162Z" fill="#0C1830"/>
<path d="M57.8355 41.0448C56.7091 41.551 55.4628 42.756 54.9835 43.8406L54.5521 44.8046H46.0201C36.5773 44.8046 36.4096 44.8287 36.4096 46.2507C36.4096 47.287 37.1525 47.6967 39.0938 47.6967C40.0045 47.6967 40.7235 47.769 40.7235 47.8654C40.7475 47.986 39.3095 52.5411 37.5599 57.9879L34.3724 67.9416H33.0063C31.9279 67.9416 31.4965 68.0622 31.137 68.4237C30.5857 68.978 30.5618 69.0744 30.9213 70.9543C31.8799 76.1601 36.9129 79.9922 42.7606 79.9922C48.3927 79.9681 53.2339 76.5457 54.4802 71.6773C55.2471 68.7611 54.8157 67.9416 52.5389 67.9416H51.1489L48.0572 58.2771C46.3796 52.9749 44.9416 48.4198 44.8697 48.1547C44.7499 47.7208 44.9176 47.6967 49.615 47.6967L54.5042 47.7208L55.2231 48.9741C55.7504 49.914 56.2777 50.4202 57.3322 51.0468L58.6983 51.8662V63.8686V75.895H57.9313C56.6132 75.895 56.4215 76.1842 56.3016 78.2087C56.2058 79.7271 56.0859 80.1127 55.7025 80.3296C55.4628 80.4742 54.8157 80.8598 54.2885 81.1731L53.3298 81.7516L51.8679 80.9562C49.7828 79.8235 49.5431 79.944 47.8415 82.8843C46.068 85.9693 46.092 86.3067 48.0093 87.4635L49.4473 88.3312L49.4712 90.0423L49.4952 91.7294L48.3688 92.3801C46.9068 93.1996 46.4754 93.6334 46.4754 94.2841C46.4754 94.5733 47.0986 95.8989 47.8655 97.2245C49.1357 99.4177 49.3274 99.6346 50.0224 99.7069C50.5737 99.7551 51.1728 99.5623 52.0356 99.0079C53.0182 98.4295 53.3538 98.309 53.6653 98.5259C53.8571 98.6705 54.5281 99.0561 55.1752 99.3936L56.3016 99.9961V101.755C56.3016 102.792 56.4215 103.635 56.5892 103.804C56.781 103.997 57.8594 104.093 59.8966 104.093C63.6353 104.093 63.7312 104.045 63.7312 101.49C63.7312 100.213 63.8271 99.7551 64.0428 99.7551C64.2105 99.7551 64.8816 99.4177 65.5047 99.032L66.6551 98.2849L67.9253 99.032C69.3633 99.8515 70.2021 99.9479 70.7294 99.3212C70.9451 99.1043 71.6641 97.8993 72.3591 96.6701C73.869 93.9949 73.821 93.6816 71.7599 92.5006L70.4418 91.7535V90.0423V88.3071L71.8798 87.4635C72.7905 86.9574 73.3896 86.4272 73.4615 86.0898C73.6053 85.5595 72.9822 84.2822 71.2327 81.4865C70.274 79.9681 69.8187 79.8958 67.9972 80.9803L66.751 81.7275L65.2411 80.908L63.7312 80.1127V78.3774C63.7312 76.859 63.6593 76.5939 63.2039 76.2806C62.9163 76.0637 62.3651 75.895 62.0056 75.895H61.3346V63.7481V51.6011L61.9337 51.4565C62.7725 51.2396 64.4023 49.7212 64.9535 48.6126L65.4088 47.6967H70.3459C74.2045 47.6967 75.259 47.769 75.1631 47.986C75.1152 48.1547 74.6119 49.6489 74.0847 51.3119C73.5574 52.9749 72.1434 57.3854 70.9211 61.121L68.7402 67.9416H67.3501C65.6725 67.9416 65.1692 68.3755 65.1692 69.7733C65.1692 72.1593 66.4873 74.8346 68.6203 76.7867C73.2698 81.0526 81.0349 81.0526 85.6844 76.7867C87.8413 74.8105 89.1355 72.1593 89.1355 69.7492C89.1355 68.3514 88.6322 67.9416 86.9067 67.9416H85.5645L83.3836 61.121C81.1308 54.0835 79.3093 48.5162 79.1176 47.986C79.0457 47.769 79.4292 47.6967 80.6275 47.6967C82.1613 47.6967 83.072 47.4316 83.4315 46.8773C83.7431 46.4194 83.6472 45.7928 83.1439 45.2866C82.6886 44.8287 82.353 44.8046 74.0607 44.8046H65.4807L64.6659 43.4309C64.0188 42.3463 63.5874 41.9125 62.5568 41.3823C61.1189 40.611 59.1297 40.4905 57.8355 41.0448ZM61.1908 43.7201C63.4676 44.8046 63.156 48.1065 60.7114 48.9018C58.9619 49.5043 57.2603 48.1788 57.2603 46.2507C57.2603 44.9974 57.5718 44.419 58.5305 43.8406C59.4652 43.2621 60.1602 43.238 61.1908 43.7201ZM45.5887 59.4581L48.3208 67.9416H42.8565C39.8367 67.9416 37.3682 67.8693 37.3682 67.7488C37.3682 67.4596 42.7127 50.8299 42.8086 50.9022C42.8325 50.9504 44.1028 54.8066 45.5887 59.4581ZM79.8845 59.193C81.3225 63.6758 82.5448 67.4837 82.5927 67.6283C82.6886 67.8693 81.5142 67.9416 77.1524 67.9416C72.6706 67.9416 71.6161 67.8693 71.712 67.6283C71.7839 67.4596 73.0062 63.6517 74.4202 59.193C75.8582 54.7343 77.0805 51.0709 77.1524 51.0709C77.2243 51.0709 78.4465 54.7343 79.8845 59.193ZM51.8679 70.8338C51.9158 70.9302 51.6522 71.6773 51.2447 72.4967C49.0878 76.859 42.9763 78.5702 38.1591 76.2083C35.9542 75.1238 33.7733 72.5691 33.7733 71.0989C33.7733 70.641 33.989 70.6169 42.7606 70.6169C47.6977 70.6169 51.796 70.7133 51.8679 70.8338ZM86.2596 70.9784C86.2596 71.7255 85.0612 73.6777 83.9828 74.6658C80.244 78.1364 74.0607 78.1364 70.298 74.6417C69.2914 73.7259 68.0451 71.6773 68.0451 70.9061C68.0451 70.6892 70.274 70.6169 77.1524 70.6169C85.0133 70.6169 86.2596 70.6651 86.2596 70.9784ZM61.047 80.2332C61.0949 81.0767 61.2147 81.8962 61.3346 82.0408C61.4784 82.2095 61.9817 82.4505 62.5089 82.6192C63.0362 82.7638 64.0188 83.3181 64.7138 83.8484C66.1997 84.957 66.6311 85.0052 67.9253 84.2099C69.1476 83.4627 69.3393 83.4627 69.7228 84.2581C70.2021 85.2221 70.2021 85.2221 68.884 86.0898L67.6856 86.861L67.6617 89.9218C67.6617 91.6089 67.7096 93.0791 67.7815 93.1996C67.8534 93.3201 68.4286 93.7057 69.0757 94.0672C69.6988 94.4287 70.2021 94.7902 70.2021 94.8625C70.2021 94.9349 69.9864 95.3687 69.6988 95.8025L69.2195 96.5978L67.9493 95.8989C67.2542 95.4892 66.5353 95.1759 66.3435 95.1759C66.1518 95.1759 65.6006 95.5133 65.1212 95.8989C64.6179 96.3086 63.6114 96.9111 62.8444 97.2486C62.0775 97.586 61.3825 97.9957 61.2866 98.1403C61.1908 98.309 61.0949 99.1043 61.0949 99.9238V101.442H60.0164H58.9379V100.044C58.9379 98.4295 58.5305 97.6824 57.5239 97.4655C57.1405 97.3932 56.1339 96.8388 55.295 96.2604C54.4802 95.6579 53.6414 95.1759 53.4496 95.1759C53.2579 95.1759 52.5868 95.5133 51.9398 95.923C51.2687 96.3086 50.7175 96.6219 50.6935 96.5737C50.6456 96.5255 50.4059 96.1158 50.1183 95.6579L49.615 94.7902L50.4778 94.3323C52.4191 93.2719 52.3711 93.3924 52.3232 90.0664C52.2992 88.4517 52.2513 87.0297 52.2513 86.9333C52.2274 86.8369 51.6522 86.4031 50.9332 86.0175L49.615 85.2703L50.1183 84.4268C50.6935 83.4627 50.8613 83.4386 52.1075 84.2099C53.3538 84.9811 53.8571 84.957 54.9116 84.0894C55.4149 83.6797 56.3256 83.1253 56.9487 82.8361C58.7702 82.0408 58.9379 81.8239 58.9379 80.0886V78.5943L59.9685 78.6425L60.9751 78.6907L61.047 80.2332Z" fill="#5178FF"/>
<path d="M57.6925 85.7765C56.5181 86.4273 55.6553 87.5841 55.3198 89.0543C54.7446 91.5608 56.3504 94.0673 58.9387 94.6939C61.8387 95.3929 64.6906 93.1032 64.6906 90.0424C64.6906 89.4399 64.5708 88.6445 64.427 88.2589C64.0915 87.3431 62.8213 86.0416 61.8866 85.6319C60.7602 85.1499 58.747 85.2222 57.6925 85.7765ZM61.3593 88.6445C62.1023 89.3917 62.2221 90.0665 61.7668 90.9101C60.7602 92.8381 57.9801 92.1633 57.9801 89.9942C57.9801 88.0902 59.9932 87.2949 61.3593 88.6445Z" fill="#0C1830"/>
</svg>
