<svg width="288" height="288" viewBox="0 0 288 288" fill="none" xmlns="http://www.w3.org/2000/svg">
<g clip-path="url(#clip0_3_2)">
<g clip-path="url(#clip1_3_2)">
<path d="M249.535 201.651C248.43 200.55 246.934 199.931 245.374 199.931C243.814 199.931 242.318 200.55 241.214 201.651L241.082 201.783L235.745 201.567L234.657 200.505C234.908 199.523 234.9 198.493 234.634 197.515C234.367 196.537 233.852 195.645 233.138 194.926L230.41 192.199L234.451 187.81C235.857 186.264 236.613 184.236 236.563 182.147C236.512 180.058 235.658 178.069 234.178 176.593C232.698 175.118 230.706 174.269 228.617 174.224C226.528 174.179 224.502 174.941 222.96 176.352L218.589 180.377L214.143 175.932C213.068 174.86 211.617 174.248 210.098 174.228L209.218 173.326L209.002 167.99L209.133 167.859C209.679 167.313 210.113 166.664 210.409 165.95C210.705 165.236 210.857 164.471 210.857 163.698C210.857 162.926 210.705 162.16 210.41 161.446C210.114 160.732 209.681 160.083 209.134 159.537L207.396 157.798C205.83 156.238 203.71 155.361 201.499 155.361C199.288 155.361 197.168 156.238 195.602 157.798L172.159 181.245C171.384 182.019 170.77 182.938 170.351 183.95C169.931 184.962 169.716 186.046 169.716 187.142C169.716 188.237 169.931 189.322 170.351 190.333C170.77 191.345 171.384 192.265 172.159 193.039L173.894 194.775C174.902 195.791 176.249 196.399 177.678 196.486C179.106 196.573 180.517 196.131 181.641 195.245L187.188 195.482C186.836 196.515 186.779 197.626 187.024 198.69C187.27 199.754 187.807 200.728 188.577 201.502L191.967 204.893L154.874 239.049C153.657 240.127 152.673 241.443 151.983 242.916C151.293 244.388 150.911 245.986 150.86 247.612C150.809 249.237 151.091 250.856 151.688 252.368C152.285 253.881 153.185 255.256 154.332 256.408C155.479 257.561 156.85 258.467 158.36 259.071C159.87 259.675 161.487 259.965 163.113 259.921C164.738 259.878 166.338 259.504 167.813 258.82C169.289 258.137 170.61 257.16 171.694 255.948L205.893 218.817L207.571 220.497C208.115 221.041 208.762 221.473 209.474 221.767C210.186 222.062 210.949 222.212 211.719 222.211C211.919 222.202 212.117 222.183 212.314 222.154L213.583 223.394L213.825 229.142C212.938 230.266 212.495 231.677 212.582 233.106C212.668 234.535 213.278 235.882 214.294 236.89L216.033 238.63C217.598 240.191 219.719 241.067 221.93 241.067C224.14 241.067 226.261 240.191 227.827 238.63L251.27 215.184C252.044 214.41 252.659 213.49 253.078 212.478C253.497 211.467 253.713 210.382 253.713 209.287C253.713 208.192 253.497 207.107 253.078 206.095C252.659 205.083 252.044 204.164 251.27 203.39L249.535 201.651ZM227.589 181.413C227.828 181.194 228.14 181.072 228.465 181.071C228.629 181.071 228.791 181.103 228.943 181.166C229.095 181.228 229.233 181.32 229.349 181.437C229.578 181.668 229.709 181.978 229.717 182.303C229.724 182.628 229.608 182.943 229.39 183.185L225.557 187.346L223.442 185.23L227.589 181.413ZM178.054 189.24L177.005 188.191C176.727 187.913 176.571 187.536 176.571 187.143C176.571 186.749 176.727 186.372 177.005 186.094L200.45 162.65C200.728 162.372 201.105 162.216 201.498 162.216C201.892 162.216 202.269 162.371 202.548 162.648L203.597 163.697L178.054 189.24ZM191.695 190.08L191.347 189.725C190.737 189.102 189.912 188.734 189.041 188.697L188.325 188.667L202.406 174.586L202.419 174.921C202.454 175.768 202.801 176.572 203.393 177.178L203.988 177.787L191.695 190.08ZM166.615 251.342C166.155 251.869 165.591 252.296 164.959 252.595C164.327 252.894 163.64 253.06 162.941 253.082C162.242 253.104 161.545 252.981 160.896 252.722C160.246 252.463 159.657 252.072 159.165 251.575C158.673 251.077 158.289 250.484 158.037 249.831C157.785 249.179 157.67 248.481 157.7 247.782C157.73 247.083 157.903 246.398 158.21 245.769C158.516 245.141 158.949 244.582 159.482 244.128L196.819 209.746L201.039 213.965L166.615 251.342ZM211.719 214.947L194.122 197.35L209.995 181.479L227.592 199.078L211.719 214.947ZM218.122 218.244L230.417 205.949L231.893 207.393C232.499 207.986 233.304 208.333 234.151 208.366L234.485 208.38L220.406 222.459L220.375 221.746C220.338 220.875 219.97 220.05 219.346 219.441L218.122 218.244ZM246.423 210.334L222.979 233.779C222.841 233.917 222.677 234.026 222.497 234.101C222.317 234.176 222.124 234.214 221.929 234.214C221.734 234.214 221.541 234.176 221.361 234.101C221.18 234.026 221.017 233.917 220.879 233.779L219.831 232.731L245.374 207.189L246.423 208.238C246.701 208.516 246.857 208.893 246.857 209.286C246.857 209.679 246.701 210.056 246.423 210.334Z" fill="#5178FF"/>
<path d="M37.7143 259.929C38.6236 259.929 39.4957 259.567 40.1386 258.924C40.7816 258.281 41.1428 257.409 41.1428 256.5V213.384C41.04 205.753 43.553 198.317 48.2638 192.313C52.9747 186.309 59.5993 182.099 67.0354 180.384C67.8123 186.288 70.4929 191.778 74.6708 196.022C78.3523 199.806 82.6938 202.887 87.4817 205.113C87.3618 206.83 87.6705 208.55 88.38 210.118C89.2839 211.999 90.656 213.617 92.3646 214.815C94.0733 216.013 96.0612 216.753 98.1377 216.962L84.2503 255.333C83.9407 256.188 83.9834 257.131 84.3692 257.955C84.755 258.778 85.4522 259.415 86.3074 259.725C87.1626 260.034 88.1058 259.991 88.9295 259.606C89.7531 259.22 90.3898 258.523 90.6994 257.667L106.059 215.22L116.182 210.153L104.45 255.645C104.329 256.083 104.298 256.541 104.356 256.992C104.414 257.443 104.562 257.878 104.79 258.271C105.018 258.665 105.322 259.009 105.685 259.284C106.047 259.558 106.46 259.758 106.901 259.872C107.341 259.985 107.799 260.01 108.249 259.945C108.699 259.879 109.132 259.725 109.522 259.491C109.912 259.256 110.251 258.947 110.52 258.58C110.789 258.214 110.983 257.797 111.089 257.355L120.449 221.067L129.807 257.355C129.914 257.797 130.108 258.214 130.377 258.58C130.646 258.947 130.985 259.256 131.375 259.491C131.765 259.725 132.197 259.879 132.647 259.945C133.097 260.01 133.556 259.985 133.996 259.872C134.436 259.758 134.85 259.558 135.212 259.284C135.574 259.009 135.878 258.665 136.107 258.271C136.335 257.878 136.482 257.443 136.541 256.992C136.599 256.541 136.567 256.083 136.447 255.645L124.85 210.679L135.036 215.777L144.789 242.722C145.641 239.814 147.178 237.152 149.271 234.96L142.706 216.816C144.621 216.495 146.43 215.719 147.982 214.551C149.533 213.384 150.781 211.861 151.62 210.11C152.328 208.545 152.637 206.828 152.518 205.114C157.304 202.89 161.643 199.811 165.322 196.029C165.403 195.943 165.471 195.854 165.55 195.768C163.984 193.506 163.069 190.857 162.903 188.11C162.136 189.25 161.276 190.326 160.332 191.325C157.327 194.409 153.798 196.934 149.909 198.782C149.894 198.765 149.883 198.747 149.87 198.73L147.233 195.713L147.609 191.589C147.699 190.571 147.64 189.545 147.435 188.544C151.351 186.645 154.575 183.57 156.658 179.75C156.696 179.671 156.729 179.587 156.759 179.501C156.876 179.222 156.934 178.939 157.023 178.658C159.563 179.337 162.178 179.69 164.806 179.709C165.486 178.495 166.329 177.38 167.311 176.395L170.63 173.076C169.277 172.93 167.918 172.857 166.558 172.857H164.961C160.133 172.812 155.422 171.374 151.393 168.715C147.363 166.056 144.188 162.29 142.25 157.869C141.745 156.733 141.298 155.573 140.911 154.392C143.389 151.766 145.656 148.95 147.691 145.968C149.37 148.701 151.827 150.87 154.747 152.198C157.666 153.526 160.916 153.953 164.08 153.423C167.243 152.894 170.177 151.432 172.505 149.226C174.833 147.019 176.449 144.168 177.147 141.038C179.186 140.144 181.019 138.841 182.532 137.208C184.045 135.576 185.206 133.649 185.942 131.549C186.679 129.449 186.976 127.219 186.813 124.999C186.651 122.78 186.034 120.617 185.001 118.646C186.381 116.021 187.012 113.068 186.824 110.109C186.637 107.149 185.638 104.299 183.938 101.87C185.12 98.7631 185.317 95.3682 184.504 92.1454C183.691 88.9227 181.906 86.0281 179.391 83.8543C179.407 83.5709 179.415 83.2863 179.415 83.0006C179.42 80.2835 178.74 77.609 177.438 75.2242C176.136 72.8395 174.254 70.8214 171.965 69.3566C171.849 65.5988 170.432 61.9978 167.957 59.1679C165.482 56.3381 162.102 54.4546 158.393 53.8389C156.957 51.4824 154.938 49.5353 152.532 48.1848C150.125 46.8344 147.411 46.1261 144.651 46.128C144.389 46.128 144.126 46.1349 143.863 46.1486C141.61 43.5075 138.563 41.6659 135.178 40.8984C131.792 40.131 128.249 40.4789 125.078 41.8903C124.624 41.6926 124.16 41.5154 123.686 41.3589C122.694 40.8316 121.588 40.5561 120.465 40.5566C120.31 40.5566 120.155 40.5617 120 40.572C119.845 40.5606 119.69 40.5549 119.535 40.5549C118.411 40.5552 117.305 40.8319 116.313 41.3606C115.839 41.516 115.376 41.6926 114.922 41.8903C111.751 40.4789 108.208 40.131 104.822 40.8984C101.437 41.6659 98.3901 43.5075 96.1371 46.1486C95.8743 46.1349 95.6114 46.128 95.3486 46.128C92.5889 46.1261 89.8752 46.8344 87.4685 48.1848C85.0618 49.5353 83.0432 51.4824 81.6068 53.8389C77.8981 54.4546 74.5178 56.3381 72.0427 59.1679C69.5677 61.9978 68.1512 65.5988 68.0348 69.3566C65.7462 70.8216 63.8638 72.8399 62.5616 75.225C61.2594 77.61 60.5794 80.2849 60.5846 83.0023C60.5846 83.2869 60.5926 83.5709 60.6086 83.8543C58.0942 86.0281 56.3093 88.9227 55.496 92.1454C54.6827 95.3682 54.8804 98.7631 56.0623 101.87C54.362 104.299 53.3634 107.149 53.176 110.109C52.9885 113.068 53.6194 116.021 54.9994 118.646C53.9656 120.617 53.3485 122.78 53.1865 124.999C53.0245 127.219 53.321 129.449 54.0576 131.549C54.7942 133.649 55.9552 135.576 57.4682 137.208C58.9813 138.841 60.8141 140.144 62.8526 141.038C63.5561 144.193 65.1922 147.063 67.5484 149.276C69.9045 151.489 72.8718 152.942 76.0646 153.447C79.2574 153.952 82.5283 153.485 85.4521 152.106C88.376 150.728 90.8177 148.502 92.46 145.718C94.4775 148.682 96.7232 151.484 99.1766 154.099C98.6326 155.804 97.9669 157.469 97.1846 159.079C95.1727 163.226 92.0299 166.719 88.1184 169.157C84.2069 171.595 79.686 172.877 75.0771 172.857H73.4417C51.852 172.857 34.2857 191.037 34.2857 213.382V256.5C34.2857 257.409 34.6469 258.281 35.2899 258.924C35.9329 259.567 36.805 259.929 37.7143 259.929ZM140.242 210.214C139.837 210.214 139.432 210.179 139.032 210.11L119.991 200.578L100.951 210.11C100.552 210.179 100.147 210.214 99.7423 210.214C95.4943 210.214 92.6726 206.253 95.3023 203.234L99.8451 198.015L99.2246 190.968C98.9623 188.232 101.721 186.214 104.719 186.214C105.766 186.211 106.799 186.464 107.726 186.951L119.991 195.031L132.259 186.951C133.189 186.464 134.224 186.211 135.274 186.214C138.274 186.214 141.026 188.232 140.779 190.968L140.138 198.014L144.699 203.234C147.329 206.253 144.494 210.214 140.242 210.214ZM87.4423 104.316V130.653C87.4423 131.609 87.9068 135.962 87.9068 137.407C87.9236 138.639 87.6953 139.862 87.2353 141.006C86.7753 142.149 86.0928 143.19 85.2273 144.067C84.3618 144.944 83.3307 145.641 82.1937 146.116C81.0567 146.592 79.8366 146.837 78.6043 146.837C77.3719 146.837 76.1518 146.592 75.0149 146.116C73.8779 145.641 72.8467 144.944 71.9813 144.067C71.1158 143.19 70.4332 142.149 69.9732 141.006C69.5132 139.862 69.285 138.639 69.3017 137.407C69.3067 136.771 69.3692 136.136 69.4886 135.511C69.432 135.511 69.3771 135.53 69.3017 135.53C67.3383 135.515 65.429 134.885 63.8435 133.726C62.2581 132.568 61.0765 130.941 60.4659 129.075C59.8552 127.209 59.8463 125.198 60.4404 123.327C61.0344 121.455 62.2014 119.818 63.7766 118.646C62.5206 117.714 61.5187 116.481 60.8625 115.061C60.2062 113.642 59.9167 112.08 60.0204 110.519C60.1241 108.959 60.6178 107.449 61.4561 106.129C62.2944 104.808 63.4506 103.719 64.8189 102.962C63.623 101.842 62.7424 100.428 62.2654 98.8605C61.7884 97.2932 61.7318 95.6281 62.1011 94.0321C62.4704 92.4361 63.2527 90.9651 64.3697 89.7667C65.4867 88.5683 66.899 87.6845 68.4651 87.204C67.8018 85.9015 67.4514 84.4622 67.4417 83.0006C67.4367 80.7068 68.2791 78.4921 69.8074 76.7816C71.3356 75.0711 73.4419 73.9855 75.7217 73.7331C75.1771 72.5173 74.8916 71.2014 74.8834 69.8691C74.8739 67.3917 75.8485 65.0118 77.5931 63.2528C79.3377 61.4937 81.7094 60.4995 84.1869 60.4886C84.8699 60.4939 85.5502 60.5761 86.2148 60.7337C86.5798 58.5728 87.6963 56.6102 89.3675 55.1925C91.0387 53.7747 93.157 52.9929 95.3486 52.9851C96.7997 52.9955 98.2277 53.3491 99.516 54.0171C99.9595 52.4769 100.797 51.079 101.947 49.9617C103.096 48.8444 104.517 48.0463 106.069 47.6464C107.621 47.2464 109.251 47.2584 110.797 47.6812C112.343 48.1041 113.752 48.923 114.885 50.0571C116.161 48.7979 117.777 47.9397 119.535 47.5886V47.4137C119.695 47.4291 119.844 47.4771 120 47.4994C120.158 47.4771 120.307 47.4291 120.465 47.4137V47.5869C122.224 47.9387 123.841 48.798 125.117 50.0589C126.25 48.9251 127.658 48.1065 129.204 47.6838C130.75 47.2612 132.379 47.2491 133.931 47.6489C135.483 48.0486 136.904 48.8463 138.053 49.9631C139.202 51.08 140.04 52.4773 140.484 54.0171C141.772 53.3494 143.199 52.9958 144.65 52.9851C146.842 52.9921 148.961 53.7735 150.633 55.1914C152.305 56.6092 153.422 58.5722 153.787 60.7337C154.451 60.5761 155.132 60.4939 155.815 60.4886C158.292 60.4999 160.663 61.4944 162.408 63.2534C164.152 65.0124 165.126 67.392 165.117 69.8691C165.109 71.2012 164.824 72.5172 164.28 73.7331C166.56 73.9859 168.665 75.0717 170.193 76.7821C171.721 78.4926 172.563 80.7071 172.558 83.0006C172.549 84.4622 172.198 85.9015 171.535 87.204C173.101 87.6845 174.513 88.5683 175.63 89.7667C176.747 90.9651 177.53 92.4361 177.899 94.0321C178.268 95.6281 178.212 97.2932 177.735 98.8605C177.258 100.428 176.377 101.842 175.181 102.962C176.549 103.719 177.706 104.808 178.544 106.129C179.382 107.449 179.876 108.959 179.98 110.519C180.083 112.08 179.794 113.642 179.138 115.061C178.481 116.481 177.479 117.714 176.223 118.646C177.799 119.818 178.966 121.455 179.56 123.327C180.154 125.198 180.145 127.209 179.534 129.075C178.923 130.941 177.742 132.568 176.156 133.726C174.571 134.885 172.662 135.515 170.698 135.53C170.623 135.53 170.568 135.511 170.511 135.511C170.631 136.135 170.693 136.769 170.698 137.405C170.715 138.637 170.487 139.861 170.027 141.004C169.567 142.147 168.884 143.188 168.019 144.065C167.153 144.942 166.122 145.639 164.985 146.115C163.848 146.59 162.628 146.835 161.396 146.835C160.163 146.835 158.943 146.59 157.806 146.115C156.669 145.639 155.638 144.942 154.773 144.065C153.907 143.188 153.225 142.147 152.765 141.004C152.305 139.861 152.076 138.637 152.093 137.405C152.093 135.962 152.558 131.609 152.558 130.651V104.318C152.508 102.072 151.576 99.9354 149.963 98.3718C148.349 96.8082 146.185 95.9432 143.938 95.964C143.027 95.9652 142.122 96.1098 141.255 96.3926C134.367 98.4861 127.199 99.5101 120 99.4286C112.8 99.5091 105.631 98.4841 98.7428 96.3891C97.877 96.1071 96.9723 95.9631 96.0617 95.9623C93.8151 95.9414 91.6508 96.8065 90.0375 98.3701C88.4242 99.9337 87.4918 102.07 87.4423 104.316ZM94.74 136.493C94.6971 135.567 94.6011 134.385 94.4726 132.847C94.404 132.024 94.308 130.898 94.2977 130.582V104.445C94.3225 103.997 94.5207 103.578 94.85 103.274C95.1794 102.971 95.614 102.808 96.0617 102.819C96.254 102.82 96.445 102.851 96.6274 102.912C104.198 105.232 112.082 106.37 120 106.286C127.917 106.37 135.8 105.232 143.371 102.912C143.554 102.852 143.745 102.82 143.938 102.819C144.374 102.804 144.799 102.956 145.126 103.244C145.454 103.532 145.659 103.933 145.701 104.367V130.653C145.692 130.898 145.598 132.024 145.529 132.847C145.371 134.715 145.267 136.051 145.245 137.037C140.594 145.275 130.663 158.333 120.271 158.333C110.199 158.333 99.6668 145.471 94.74 136.493ZM103.342 162.096C103.822 161.115 104.254 160.116 104.655 159.106C109.037 162.817 114.533 164.959 120.271 165.192C125.835 164.967 131.167 162.907 135.437 159.333C135.621 159.778 135.792 160.227 135.989 160.668C138.968 167.34 144.12 172.805 150.603 176.174C150.584 176.438 150.514 176.695 150.398 176.933C150.373 176.99 150.35 177.047 150.329 177.105C148.794 179.513 146.601 181.432 144.009 182.631C141.602 180.498 138.49 179.332 135.274 179.357C133.11 179.356 130.977 179.881 129.06 180.886C128.863 180.989 128.673 181.102 128.487 181.224L119.991 186.819L111.497 181.224C111.314 181.105 111.127 180.995 110.937 180.893C109.02 179.883 106.885 179.356 104.719 179.357C101.5 179.33 98.3865 180.498 95.9794 182.635C93.3861 181.435 91.191 179.517 89.6537 177.108C89.632 177.05 89.6085 176.993 89.5834 176.937C89.4883 176.734 89.4241 176.519 89.3931 176.297C95.4638 173.207 100.361 168.221 103.342 162.096ZM75.0771 179.714C77.7408 179.71 80.3935 179.373 82.9731 178.709C83.0571 178.968 83.1103 179.23 83.2166 179.489C83.2491 179.578 83.2834 179.666 83.3211 179.75C84.7097 182.856 87.912 185.966 92.5611 188.553C92.3571 189.561 92.3022 190.595 92.3983 191.619L92.7583 195.713L90.1303 198.732L90.0943 198.782C86.2015 196.932 82.6688 194.405 79.6611 191.318C76.5159 188.184 74.4786 184.11 73.8583 179.714H75.0771ZM205.714 256.5V229.133L198.857 236.578V256.5C198.857 257.409 199.218 258.281 199.861 258.924C200.504 259.567 201.376 259.929 202.286 259.929C203.195 259.929 204.067 259.567 204.71 258.924C205.353 258.281 205.714 257.409 205.714 256.5Z" fill="black"/>
<path d="M3.42857 259.929C5.32212 259.929 6.85714 258.394 6.85714 256.5C6.85714 254.606 5.32212 253.071 3.42857 253.071C1.53502 253.071 0 254.606 0 256.5C0 258.394 1.53502 259.929 3.42857 259.929Z" fill="#2D4356"/>
<path d="M18.8571 253.071H13.7143C12.805 253.071 11.9329 253.433 11.2899 254.076C10.6469 254.719 10.2857 255.591 10.2857 256.5C10.2857 257.409 10.6469 258.281 11.2899 258.924C11.9329 259.567 12.805 259.929 13.7143 259.929H18.8571C19.7664 259.929 20.6385 259.567 21.2815 258.924C21.9245 258.281 22.2857 257.409 22.2857 256.5C22.2857 255.591 21.9245 254.719 21.2815 254.076C20.6385 253.433 19.7664 253.071 18.8571 253.071ZM274.286 253.071H269.143C268.234 253.071 267.361 253.433 266.719 254.076C266.076 254.719 265.714 255.591 265.714 256.5C265.714 257.409 266.076 258.281 266.719 258.924C267.361 259.567 268.234 259.929 269.143 259.929H274.286C275.195 259.929 276.067 259.567 276.71 258.924C277.353 258.281 277.714 257.409 277.714 256.5C277.714 255.591 277.353 254.719 276.71 254.076C276.067 253.433 275.195 253.071 274.286 253.071Z" fill="#2D4356"/>
<path d="M284.571 259.929C286.465 259.929 288 258.394 288 256.5C288 254.606 286.465 253.071 284.571 253.071C282.678 253.071 281.143 254.606 281.143 256.5C281.143 258.394 282.678 259.929 284.571 259.929Z" fill="#2D4356"/>
<path d="M202.55 266.786H188.307C187.444 266.853 186.638 267.243 186.049 267.879C185.461 268.514 185.134 269.348 185.134 270.214C185.134 271.08 185.461 271.914 186.049 272.55C186.638 273.186 187.444 273.576 188.307 273.643H202.55C203.413 273.576 204.22 273.186 204.808 272.55C205.396 271.914 205.723 271.08 205.723 270.214C205.723 269.348 205.396 268.514 204.808 267.879C204.22 267.243 203.413 266.853 202.55 266.786ZM99.6926 266.786H85.4503C84.5869 266.853 83.7805 267.243 83.1922 267.879C82.604 268.514 82.2772 269.348 82.2772 270.214C82.2772 271.08 82.604 271.914 83.1922 272.55C83.7805 273.186 84.5869 273.576 85.4503 273.643H99.6926C100.556 273.576 101.362 273.186 101.951 272.55C102.539 271.914 102.866 271.08 102.866 270.214C102.866 269.348 102.539 268.514 101.951 267.879C101.362 267.243 100.556 266.853 99.6926 266.786ZM178.286 266.786H109.714C108.805 266.786 107.933 267.147 107.29 267.79C106.647 268.433 106.286 269.305 106.286 270.214C106.286 271.124 106.647 271.996 107.29 272.639C107.933 273.282 108.805 273.643 109.714 273.643H137.04V277.071H123.429C122.519 277.071 121.647 277.433 121.004 278.076C120.361 278.719 120 279.591 120 280.5C120 281.409 120.361 282.281 121.004 282.924C121.647 283.567 122.519 283.929 123.429 283.929H166.286C167.195 283.929 168.067 283.567 168.71 282.924C169.353 282.281 169.714 281.409 169.714 280.5C169.714 279.591 169.353 278.719 168.71 278.076C168.067 277.433 167.195 277.071 166.286 277.071H150.96V273.643H178.286C179.195 273.643 180.067 273.282 180.71 272.639C181.353 271.996 181.714 271.124 181.714 270.214C181.714 269.305 181.353 268.433 180.71 267.79C180.067 267.147 179.195 266.786 178.286 266.786Z" fill="#5178FF"/>
<path d="M258.379 259.929H29.6229C29.1351 259.992 28.6394 259.951 28.1687 259.808C27.6981 259.665 27.2635 259.423 26.8938 259.099C26.5241 258.774 26.2279 258.374 26.025 257.926C25.8221 257.478 25.7172 256.992 25.7172 256.5C25.7172 256.008 25.8221 255.522 26.025 255.074C26.2279 254.626 26.5241 254.226 26.8938 253.901C27.2635 253.577 27.6981 253.335 28.1687 253.192C28.6394 253.049 29.1351 253.008 29.6229 253.071H258.377C258.865 253.008 259.361 253.049 259.831 253.192C260.302 253.335 260.737 253.577 261.106 253.901C261.476 254.226 261.772 254.626 261.975 255.074C262.178 255.522 262.283 256.008 262.283 256.5C262.283 256.992 262.178 257.478 261.975 257.926C261.772 258.374 261.476 258.774 261.106 259.099C260.737 259.423 260.302 259.665 259.831 259.808C259.361 259.951 258.867 259.992 258.379 259.929ZM91.7143 18.2143C92.7314 18.2143 93.7258 17.9127 94.5715 17.3476C95.4172 16.7825 96.0764 15.9792 96.4657 15.0395C96.8549 14.0998 96.9568 13.0657 96.7583 12.0681C96.5599 11.0705 96.0701 10.1541 95.3508 9.43488C94.6316 8.71564 93.7152 8.22583 92.7176 8.02739C91.72 7.82895 90.6859 7.9308 89.7462 8.32005C88.8065 8.7093 88.0033 9.36847 87.4382 10.2142C86.8731 11.0599 86.5714 12.0543 86.5714 13.0714C86.5728 14.435 87.1151 15.7423 88.0792 16.7065C89.0434 17.6707 90.3507 18.2129 91.7143 18.2143ZM91.7143 10.5C92.2229 10.5 92.72 10.6508 93.1429 10.9334C93.5658 11.2159 93.8953 11.6175 94.09 12.0874C94.2846 12.5573 94.3355 13.0743 94.2363 13.5731C94.1371 14.0719 93.8922 14.5301 93.5326 14.8897C93.1729 15.2493 92.7148 15.4942 92.2159 15.5934C91.7171 15.6927 91.2001 15.6417 90.7302 15.4471C90.2604 15.2525 89.8588 14.9229 89.5762 14.5C89.2937 14.0772 89.1429 13.58 89.1429 13.0714C89.1433 12.3896 89.4144 11.7358 89.8965 11.2537C90.3787 10.7715 91.0324 10.5005 91.7143 10.5ZM207 72.2143C206.322 72.2143 205.659 72.4154 205.095 72.7921C204.531 73.1688 204.092 73.7043 203.832 74.3308C203.573 74.9573 203.505 75.6467 203.637 76.3117C203.77 76.9768 204.096 77.5877 204.576 78.0672C205.055 78.5467 205.666 78.8733 206.331 79.0055C206.996 79.1378 207.686 79.0699 208.312 78.8104C208.939 78.5509 209.474 78.1115 209.851 77.5477C210.227 76.9838 210.429 76.321 210.429 75.6429C210.428 74.7338 210.066 73.8623 209.423 73.2195C208.781 72.5767 207.909 72.2152 207 72.2143ZM207 77.3571C206.661 77.3571 206.33 77.2566 206.048 77.0682C205.766 76.8799 205.546 76.6121 205.416 76.2989C205.286 75.9856 205.253 75.641 205.319 75.3084C205.385 74.9759 205.548 74.6704 205.788 74.4307C206.028 74.1909 206.333 74.0277 206.666 73.9615C206.998 73.8954 207.343 73.9293 207.656 74.0591C207.969 74.1888 208.237 74.4085 208.425 74.6905C208.614 74.9724 208.714 75.3038 208.714 75.6429C208.714 76.0974 208.533 76.5331 208.212 76.8545C207.89 77.1759 207.455 77.3567 207 77.3571ZM259.286 97.0714C258.608 97.0714 257.945 97.2725 257.381 97.6492C256.817 98.026 256.378 98.5615 256.118 99.1879C255.859 99.8144 255.791 100.504 255.923 101.169C256.055 101.834 256.382 102.445 256.861 102.924C257.341 103.404 257.952 103.73 258.617 103.863C259.282 103.995 259.971 103.927 260.598 103.668C261.224 103.408 261.76 102.969 262.136 102.405C262.513 101.841 262.714 101.178 262.714 100.5C262.713 99.591 262.352 98.7194 261.709 98.0766C261.066 97.4339 260.195 97.0723 259.286 97.0714ZM259.286 102.214C258.947 102.214 258.615 102.114 258.333 101.925C258.051 101.737 257.832 101.469 257.702 101.156C257.572 100.843 257.538 100.498 257.604 100.166C257.671 99.833 257.834 99.5276 258.074 99.2878C258.313 99.0481 258.619 98.8848 258.951 98.8187C259.284 98.7525 259.629 98.7865 259.942 98.9162C260.255 99.046 260.523 99.2657 260.711 99.5476C260.899 99.8295 261 100.161 261 100.5C261 100.955 260.819 101.39 260.497 101.712C260.176 102.033 259.74 102.214 259.286 102.214ZM221.143 4.07143C220.465 4.07143 219.802 4.27251 219.238 4.64924C218.674 5.02598 218.235 5.56145 217.975 6.18794C217.716 6.81443 217.648 7.5038 217.78 8.16888C217.912 8.83396 218.239 9.44487 218.718 9.92436C219.198 10.4039 219.809 10.7304 220.474 10.8627C221.139 10.995 221.828 10.9271 222.455 10.6676C223.081 10.4081 223.617 9.96864 223.994 9.40481C224.37 8.84098 224.571 8.17811 224.571 7.5C224.571 6.59096 224.209 5.71942 223.566 5.07663C222.923 4.43385 222.052 4.07233 221.143 4.07143ZM221.143 9.21428C220.804 9.21428 220.472 9.11374 220.19 8.92537C219.909 8.73701 219.689 8.46927 219.559 8.15603C219.429 7.84278 219.395 7.4981 219.462 7.16556C219.528 6.83302 219.691 6.52756 219.931 6.28781C220.17 6.04807 220.476 5.8848 220.808 5.81865C221.141 5.75251 221.486 5.78645 221.799 5.9162C222.112 6.04595 222.38 6.26568 222.568 6.54759C222.757 6.8295 222.857 7.16094 222.857 7.5C222.857 7.95452 222.676 8.39029 222.355 8.71168C222.033 9.03307 221.597 9.21383 221.143 9.21428ZM46.8086 60.2143C46.8086 59.5362 46.6075 58.8733 46.2308 58.3095C45.854 57.7456 45.3185 57.3062 44.6921 57.0467C44.0656 56.7872 43.3762 56.7193 42.7111 56.8516C42.046 56.9839 41.4351 57.3104 40.9556 57.7899C40.4761 58.2694 40.1496 58.8803 40.0173 59.5454C39.885 60.2105 39.9529 60.8998 40.2124 61.5263C40.4719 62.1528 40.9114 62.6883 41.4752 63.065C42.039 63.4418 42.7019 63.6429 43.38 63.6429C44.289 63.6419 45.1606 63.2804 45.8034 62.6376C46.4461 61.9949 46.8077 61.1233 46.8086 60.2143ZM41.6657 60.2143C41.6657 59.8752 41.7663 59.5438 41.9546 59.2619C42.143 58.98 42.4107 58.7602 42.724 58.6305C43.0372 58.5007 43.3819 58.4668 43.7144 58.5329C44.047 58.5991 44.3524 58.7624 44.5922 59.0021C44.8319 59.2418 44.9952 59.5473 45.0613 59.8798C45.1275 60.2124 45.0935 60.5571 44.9638 60.8703C44.834 61.1836 44.6143 61.4513 44.3324 61.6397C44.0505 61.828 43.7191 61.9286 43.38 61.9286C42.9255 61.9281 42.4897 61.7474 42.1683 61.426C41.8469 61.1046 41.6662 60.6688 41.6657 60.2143Z" fill="#2D4356"/>
<path d="M18.6651 117.662L21.2143 114.31L19.6045 113.398L17.9674 117.153H17.9143L16.2514 113.424L14.6143 114.363L17.136 117.636V117.689L13.1914 117.18V119.004L17.1617 118.495V118.548L14.6143 121.819L16.1417 122.786L17.8868 119.004H17.94L19.5497 122.758L21.24 121.793L18.6651 118.574V118.521L22.7143 119.004V117.18L18.6651 117.715V117.662ZM15.996 12.7577L14.5285 14.6417L15.4097 15.1971L16.4143 13.02H16.4434L17.3708 15.1817L18.3445 14.6263L16.8617 12.7714V12.7406L19.1931 13.02V11.9691L16.8617 12.2777V12.2468L18.3291 10.3166L17.4034 9.79199L16.4605 11.9537H16.4297L15.4714 9.80571L14.5285 10.3474L15.9805 12.2314V12.2623L13.7091 11.9691V13.02L15.996 12.7268V12.7577ZM278.666 48.5794V46.7914L274.694 47.3177V47.2646L277.193 43.9766L275.614 43.0817L274.01 46.764H273.957L272.326 43.1074L270.72 44.0297L273.194 47.2388V47.292L269.325 46.7914V48.5794L273.219 48.0806V48.1337L270.72 51.3429L272.22 52.2909L273.931 48.5794H273.982L275.561 52.2634L277.219 51.3171L274.694 48.1594V48.1063L278.666 48.5794ZM172.447 26.7891L174.603 23.952L173.241 23.1806L171.857 26.3571H171.811L170.405 23.2028L169.018 23.9966L171.153 26.7669V26.8114L167.817 26.3811V27.924L171.175 27.492V27.5383L169.018 30.3069L170.313 31.1229L171.789 27.924H171.833L173.194 31.1006L174.626 30.2846L172.447 27.5606V27.5143L175.872 27.924V26.3811L172.447 26.8337V26.7891Z" fill="#00C6FF"/>
</g>
</g>
<defs>
<clipPath id="clip0_3_2">
<rect width="288" height="288" fill="white"/>
</clipPath>
<clipPath id="clip1_3_2">
<rect width="288" height="288" fill="white"/>
</clipPath>
</defs>
</svg>
