<svg id="SvgjsSvg1078" width="288" height="288" xmlns="http://www.w3.org/2000/svg" version="1.1" xmlns:xlink="http://www.w3.org/1999/xlink" xmlns:svgjs="http://svgjs.com/svgjs"><defs id="SvgjsDefs1079"></defs><g id="SvgjsG1080"><svg xmlns="http://www.w3.org/2000/svg" data-name="Layer 1" viewBox="0 0 168 168" width="288" height="288"><path fill="#00c6ff" d="M118.15387 155.37751h-8.30774a2.00641 2.00641 0 0 0 0 4h8.30774a2.00641 2.00641 0 0 0 0-4zM58.15387 155.37751H49.84613a2.00641 2.00641 0 0 0 0 4h8.30774a2.00641 2.00641 0 0 0 0-4zM104 155.37751H64a2 2 0 0 0 0 4H79.94v2H72a2 2 0 0 0 0 4H97a2 2 0 0 0 0-4H88.06v-2H104a2 2 0 0 0 0-4z" class="color0bceb2 svgShape"></path><path fill="#2d4356" d="M92.56982,76.78754a3.993,3.993,0,0,0-2.62-4.99,10.59094,10.59094,0,0,0-3.02-.42h-.01a10.40581,10.40581,0,0,0-3.17.49,10.40581,10.40581,0,0,0-3.17-.49,10.61678,10.61678,0,0,0-3.03.42,4.0106,4.0106,0,0,0-2.63,4.99,9.38586,9.38586,0,0,0,17.65,0Zm-13.82-1.17114a6.71432,6.71432,0,0,1,1.8252-.23883,5.89943,5.89943,0,0,1,3.1748.86865,5.9,5.9,0,0,1,3.1748-.86865,6.70922,6.70922,0,0,1,1.8252.23883,5.40218,5.40218,0,0,1-10,0Z" class="color2d4356 svgShape"></path><path fill="#00c6ff" d="M81.74982,69.37757h4a2,2,0,0,0,0-4h-4a2,2,0,0,0,0,4Z" class="color0bceb2 svgShape"></path><circle cx="2" cy="149.378" r="2" fill="#2d4356" class="color2d4356 svgShape"></circle><path fill="#2d4356" d="M11 147.37751H8a2 2 0 0 0 0 4h3a2 2 0 0 0 0-4zM160 147.37751h-3a2 2 0 0 0 0 4h3a2 2 0 0 0 0-4z" class="color2d4356 svgShape"></path><circle cx="166" cy="149.378" r="2" fill="#2d4356" class="color2d4356 svgShape"></circle><path fill="#2d4356" d="M150.72131 147.37751h-2.47968a1.94851 1.94851 0 0 0-.25183-.98s-24.1-42.78-24.33-42.93994c-3.54-5.18005-10.64-11.58008-23.42-9.25a6.75892 6.75892 0 0 1-4.26-2.92 12.813 12.813 0 0 1-1.6-3.59l-.0033-.01343a22.58968 22.58968 0 0 0 10.68188-12.64868 1.97838 1.97838 0 0 0 .36035-.30292c.42773-.46338 10.4082-11.58887 5.76465-32.0249C107.88507 28.19019 94.85059 23.192 83.728 23.3819c-11.11108-.153-24.11682 4.82715-27.4118 19.32574-4.64355 20.436 5.33691 31.56152 5.76465 32.0249a1.97838 1.97838 0 0 0 .36035.30292 22.589 22.589 0 0 0 10.67334 12.6438 13.14655 13.14655 0 0 1-1.59229 3.60986 6.79393 6.79393 0 0 1-4.4054 2.93823c-20.431-3.72534-26.369 14.87659-26.42761 15.06812a1.9997 1.9997 0 0 0-.07721.408L20.00568 146.398a1.97847 1.97847 0 0 0-.24738.97949H17.27869a2.017 2.017 0 1 0 0 4H150.72131a2.017 2.017 0 1 0 0-4zm-25.84149-33.97l19.07953 33.97H132.35272l-14.54291-22.79v-.00989zm-72.09613 33.97H40.39838l11.86505-18.6001.81879 1.28613zm28.96613 0h-12v-10.75a8.06381 8.06381 0 0 0 2.63.44006 8.19928 8.19928 0 0 0 7.86-5.96008l1.51-5.38989zm-7.63-52.87988l-.00714-.00342a10.67327 10.67327 0 0 0 .76312-1.02441 16.93885 16.93885 0 0 0 1.9505-4.2041 22.1128 22.1128 0 0 0 13.83807.00293l.00543.01892a16.80226 16.80226 0 0 0 1.95 4.18005 10.93871 10.93871 0 0 0 .76 1.03l-9.21 4.29993a2.86333 2.86333 0 0 0-.42.24 2.86333 2.86333 0 0 0-.42-.24zm11.63 31.22l1.51 5.38989a8.147 8.147 0 0 0 10.46 5.53l.02527 10.74H85.74982zm25 21.65991h-7.36694l7.36694-11.63989zm16.84479 0H114.74982v-17.96l.69-1.09zm-23.88477-49.58c12.74-.95007 17.64 8.85 18.83 11.84l-20.81 32.87012-.02-8.79c0-.01.00995-.01.00995-.02a8.149 8.149 0 0 0 1.15-7.31006l-4-12.30994a6.02872 6.02872 0 0 0 4.52-2.34 5.9569 5.9569 0 0 0 1.05-5.19006l-2.18-8.30994zm-8.12.08a1.99277 1.99277 0 0 1 2.78 1.31006l2.2 8.38a2.00044 2.00044 0 0 1-1.93 2.51 1.96514 1.96514 0 0 1-.7-.13l-5.26-1.96 6.39 19.63989a4.15856 4.15856 0 0 1-3.95 5.44006 4.16806 4.16806 0 0 1-4-3.04l-5.26-18.73v-8.87zM62.0799 67.32532c-2.19141-4.61865-4.39453-12.58936-1.86328-23.731C63.70392 28.24866 79.0672 27.31361 83.73029 27.381c.00793.00043.01532-.00159.02319-.00128.00543-.00006.01038.0014.01587.00128 4.6582-.05273 20.02734.86914 23.51367 16.21338 2.53223 11.14355.32715 19.11475-1.86328 23.73193l-.51758-5.81348c.52148-2.42773 3.07617-16.5332-6.49512-22.38086a1.99945 1.99945 0 0 0-2.0332-.03125c-.06671.03815-6.72815 3.7948-12.624 4.36957-5.87628-.573-12.55835-4.33191-12.62506-4.37006a1.99977 1.99977 0 0 0-2.03223.03174c-9.57129 5.84766-7.0166 19.95313-6.49512 22.38086zM88.74982 51.37757a3.98286 3.98286 0 0 0-3.44519 2H82.19507a3.983 3.983 0 0 0-3.44525-2h-6a3.98983 3.98983 0 0 0-3.60236 2.28955l-3.19556-.581c.2182-3.5545 1.24744-7.49493 4.31647-9.90875 2.33521 1.1991 7.912 3.7973 13.19855 4.2865.02509.00342.05011.00592.07544.00836l.04926.00543c.05231.00446.10248-.00281.15411-.00244.05438-.00024.10712.00714.16229.00244.0174-.00153.03491-.00427.05231-.0058.02258-.0022.0448-.00446.06714-.00745 5.28809-.488 10.86688-3.0871 13.2038-4.287 3.05194 2.404 4.08136 6.3363 4.30408 9.88824l-3.1944.58081a3.98853 3.98853 0 0 0-3.59113-2.26886zm6 4v4h-6v-4zm-16 0v4h-6v-4zM65.69373 71.8628l.91547-10.307a1.98205 1.98205 0 0 0-.04883-.64795 28.134 28.134 0 0 1-.55017-3.74567l2.73962.49817v1.71722a4 4 0 0 0 4 4h6a4 4 0 0 0 4-4v-2h2v2a4 4 0 0 0 4 4h6a4 4 0 0 0 4-4v-1.74l2.73419-.49707a28.39126 28.39126 0 0 1-.54474 3.76733 1.98205 1.98205 0 0 0-.04883.64795l.91547 10.307a18.4881 18.4881 0 0 1-36.11218 0zm1.23608 35.70477l2.2-8.38a1.99277 1.99277 0 0 1 2.78-1.31006l9.73 4.55v8.87l-5.26 18.73a4.15362 4.15362 0 1 1-7.95-2.4l6.39-19.63989-5.26 1.96a1.96514 1.96514 0 0 1-.7.13A2.00044 2.00044 0 0 1 66.92981 107.56757zm-19.69513-1.48669a16.06534 16.06534 0 0 1 13.66553-7.70337h4.29962l-2.14 8.17a5.9569 5.9569 0 0 0 1.05 5.19006 6.02872 6.02872 0 0 0 4.52 2.34l-4 12.30994a8.153 8.153 0 0 0 1.12 7.27v8.85425L45.042 109.98554zM64.1051 147.37751H56.78491l.193-11.19482zM42.8194 113.94343l7.074 11.11121L35.653 147.37751H24.04407zM9.5 62.8371a3 3 0 1 0-3-3A3.00344 3.00344 0 0 0 9.5 62.8371zm0-4.5a1.5 1.5 0 1 1-1.5 1.5A1.50148 1.50148 0 0 1 9.5 58.3371zM147.33333 53.37757a2 2 0 1 0 2 2A2.00229 2.00229 0 0 0 147.33333 53.37757zm0 3a1 1 0 1 1 1-1A1.001 1.001 0 0 1 147.33333 56.37757zM84.8724 2.62249a2 2 0 1 0 2 2A2.00229 2.00229 0 0 0 84.8724 2.62249zm0 3a1 1 0 1 1 1-1A1.001 1.001 0 0 1 84.8724 5.62249zM136.41522 3.62249a2 2 0 1 0 2 2A2.00229 2.00229 0 0 0 136.41522 3.62249zm0 3a1 1 0 1 1 1-1A1.001 1.001 0 0 1 136.41522 6.62249zM47.042 30.61487a2 2 0 1 0-2 2A2.00229 2.00229 0 0 0 47.042 30.61487zm-3 0a1 1 0 1 1 1 1A1.001 1.001 0 0 1 44.042 30.61487z" class="color2d4356 svgShape"></path><polygon fill="#00c6ff" points="15.415 16.608 16.902 14.652 15.963 14.121 15.009 16.311 14.977 16.311 14.008 14.136 13.052 14.684 14.524 16.593 14.524 16.624 12.223 16.326 12.223 17.39 14.539 17.093 14.539 17.125 13.052 19.033 13.944 19.597 14.962 17.39 14.992 17.39 15.931 19.581 16.917 19.018 15.415 17.14 15.415 17.109 17.777 17.39 17.777 16.326 15.415 16.639 15.415 16.608" class="color0bceb2 svgShape"></polygon><polygon fill="#00c6ff" points="35.104 72.531 34.248 73.63 34.761 73.954 35.347 72.684 35.365 72.684 35.906 73.945 36.474 73.621 35.609 72.539 35.609 72.522 36.969 72.684 36.969 72.071 35.609 72.251 35.609 72.233 36.465 71.107 35.924 70.801 35.374 72.062 35.356 72.062 34.798 70.81 34.248 71.125 35.095 72.224 35.095 72.242 33.77 72.071 33.77 72.684 35.104 72.513 35.104 72.531" class="color0bceb2 svgShape"></polygon><polygon fill="#00c6ff" points="162.029 22.585 162.029 21.541 159.712 21.848 159.712 21.817 161.17 19.899 160.249 19.378 159.313 21.526 159.282 21.526 158.331 19.392 157.394 19.93 158.837 21.802 158.837 21.833 156.581 21.541 156.581 22.585 158.852 22.293 158.852 22.324 157.394 24.196 158.269 24.749 159.267 22.585 159.297 22.585 160.218 24.733 161.185 24.181 159.712 22.339 159.712 22.308 162.029 22.585" class="color0bceb2 svgShape"></polygon><polygon fill="#00c6ff" points="122.891 43.672 124.149 42.017 123.355 41.567 122.547 43.42 122.52 43.42 121.7 41.58 120.892 42.044 122.137 43.659 122.137 43.685 120.19 43.434 120.19 44.334 122.15 44.082 122.15 44.109 120.892 45.724 121.646 46.201 122.507 44.334 122.533 44.334 123.328 46.187 124.162 45.711 122.891 44.122 122.891 44.095 124.89 44.334 124.89 43.434 122.891 43.698 122.891 43.672" class="color0bceb2 svgShape"></polygon></svg></g></svg>