<svg width="120" height="120" viewBox="0 0 120 120" fill="none" xmlns="http://www.w3.org/2000/svg">
<path d="M84.8438 1.78803C82.7813 2.7292 80.3438 4.3292 79.5 5.27037C77.1563 7.99978 75 13.6468 75 17.2233C75 21.6468 78.6563 28.3292 82.5 30.8703C85.2188 32.6586 85.875 33.788 86.25 36.988L86.7188 40.9409H91.875H97.0313L97.5 36.988C97.875 33.788 98.5313 32.6586 101.25 30.8703C105.188 28.2351 108.75 21.5527 108.75 16.9409C108.75 13.0821 106.031 6.77625 103.5 4.51743C100.781 2.1645 95.1563 -0.000207447 91.6875 -0.000207447C90 -0.000207447 86.9063 0.84685 84.8438 1.78803ZM98.25 5.64684C106.219 10.541 107.156 21.8351 99.8438 26.9174C98.4375 27.9527 96.5625 29.4586 95.5313 30.3056C93.75 31.9998 93.75 31.8115 93.75 26.4468C93.75 20.988 93.8438 20.7998 96.375 20.5174C98.5313 20.2351 98.9063 19.7645 99.1875 16.6586C99.4688 13.6468 99.1875 13.1762 97.5938 13.1762C96.2813 13.1762 95.625 13.741 95.625 15.0586C95.625 16.6586 94.9688 16.9409 91.875 16.9409C88.7813 16.9409 88.125 16.6586 88.125 15.0586C88.125 13.741 87.4688 13.1762 86.1563 13.1762C84.5625 13.1762 84.2813 13.6468 84.5625 16.6586C84.8438 19.7645 85.2188 20.2351 87.4688 20.5174C89.9063 20.7998 90 20.988 90 26.6351C90 31.3409 89.8125 32.0939 88.875 30.9645C88.2188 30.1174 86.4375 28.7998 85.0313 27.8586C81.4688 25.6939 78.75 20.8939 78.75 16.9409C78.75 10.2586 85.2188 3.76449 91.875 3.76449C93.6563 3.76449 96.5625 4.61155 98.25 5.64684ZM93.75 36.7056C93.75 37.1762 92.9063 37.6468 91.875 37.6468C90.8438 37.6468 90 37.1762 90 36.7056C90 36.1409 90.8438 35.7645 91.875 35.7645C92.9063 35.7645 93.75 36.1409 93.75 36.7056Z" fill="#5178FF"/>
<path d="M66.9385 7.62343C66.6572 8.18814 67.501 9.88225 69.001 11.3881C70.9697 13.4587 71.8135 13.8352 72.8447 12.9881C73.876 12.1411 73.6885 11.4823 71.626 9.22343C68.8135 6.39991 67.9697 6.02344 66.9385 7.62343Z" fill="#0C1830"/>
<path d="M112.033 9.41172C109.877 11.6705 109.595 12.5176 110.439 13.3647C111.377 14.3058 112.22 13.9294 114.47 11.6705C116.814 9.3176 117.095 8.56466 115.97 7.71761C114.939 6.87055 114.095 7.24702 112.033 9.41172Z" fill="#0C1830"/>
<path d="M41.25 11.2943C41.25 12.5178 40.5938 13.1767 39.375 13.1767C38.1563 13.1767 37.5 13.8355 37.5 15.059C37.5 16.2825 38.1563 16.9414 39.375 16.9414C40.5938 16.9414 41.25 17.6002 41.25 18.8237C41.25 20.0472 41.9063 20.7061 43.125 20.7061C44.3438 20.7061 45 20.0472 45 18.8237C45 17.6002 45.6563 16.9414 46.875 16.9414C48.0938 16.9414 48.75 16.2825 48.75 15.059C48.75 13.8355 48.0938 13.1767 46.875 13.1767C45.6563 13.1767 45 12.5178 45 11.2943C45 10.0708 44.3438 9.41195 43.125 9.41195C41.9063 9.41195 41.25 10.0708 41.25 11.2943Z" fill="#0C1830"/>
<path d="M65.625 16.9414C65.625 18.5414 66.2813 18.8237 69.375 18.8237C72.4688 18.8237 73.125 18.5414 73.125 16.9414C73.125 15.3414 72.4688 15.059 69.375 15.059C66.2813 15.059 65.625 15.3414 65.625 16.9414Z" fill="#0C1830"/>
<path d="M110.625 16.9414C110.625 18.5414 111.281 18.8237 114.375 18.8237C117.469 18.8237 118.125 18.5414 118.125 16.9414C118.125 15.3414 117.469 15.059 114.375 15.059C111.281 15.059 110.625 15.3414 110.625 16.9414Z" fill="#0C1830"/>
<path d="M0.65625 17.6001C0.28125 17.8824 0 20.8942 0 24.1883C0 29.4589 0.1875 30.1177 1.875 30.1177C3.375 30.1177 3.75 29.4589 3.75 26.6354V23.0589L11.25 30.5883L18.75 38.0236L23.4375 33.4118L28.125 28.8001L34.0313 34.6353C38.9063 39.4353 40.2188 40.2824 41.0625 39.2471C41.9063 38.3059 40.6875 36.5177 35.1563 31.0589L28.125 24.0942L23.4375 28.7059L18.75 33.4118L12.375 27.0118L6.09375 20.706H9.65626C12.4688 20.706 13.125 20.3295 13.125 18.8236C13.125 17.1295 12.4688 16.9413 7.21875 16.9413C3.9375 16.9413 0.937501 17.2236 0.65625 17.6001Z" fill="#0C1830"/>
<path d="M68.9078 22.5885C66.7516 24.8473 66.4703 25.6944 67.3141 26.5414C68.2516 27.4826 69.0953 27.1061 71.3453 24.8473C73.6891 22.4944 73.9703 21.7414 72.8453 20.8944C71.8141 20.0473 70.9703 20.4238 68.9078 22.5885Z" fill="#0C1830"/>
<path d="M110.063 20.8002C109.782 21.3649 110.626 23.059 112.126 24.5649C114.095 26.6355 114.938 27.0119 115.97 26.1649C117.001 25.3178 116.813 24.659 114.751 22.4002C111.938 19.5767 111.095 19.2002 110.063 20.8002Z" fill="#0C1830"/>
<path d="M0 35.7646C0 36.9881 0.656251 37.647 1.875 37.647C3.09375 37.647 3.75 36.9881 3.75 35.7646C3.75 34.5411 3.09375 33.8823 1.875 33.8823C0.656251 33.8823 0 34.5411 0 35.7646Z" fill="#0C1830"/>
<path d="M53.625 34.9178C46.875 36.9883 41.25 45.3648 41.25 53.3648C41.25 54.9648 40.875 56.6589 40.3125 56.9413C38.625 57.9765 39.2813 63.906 41.25 65.8824C42.2813 66.9177 43.5 67.7648 43.9688 67.7648C44.4375 67.7648 45.0938 69.3648 45.4688 71.2471C45.8438 73.3177 47.3438 75.953 49.3125 77.9295C54.6563 83.2942 53.625 84.8 43.5938 86.7765C39 87.7177 34.875 88.8471 34.5 89.2236C33.0938 90.6353 30.8438 103.906 30.6563 112L30.4688 120H60H89.5313L89.3438 111.812L89.1563 103.624L91.5 104.471C103.875 109.271 120 97.0353 120 82.8236C120 76.8942 117.844 72.0942 112.969 67.2942C103.5 57.6942 91.5 57.6942 82.0313 67.2942C77.0625 72.1883 75 76.8942 75 83.2C75 86.4 74.9063 86.5883 72.4688 86.0236C67.9688 85.0824 67.5 84.8 67.5 83.2C67.5 82.353 68.9063 80 70.6875 78.0236C72.4688 76.0471 74.25 72.9412 74.625 71.153C74.9063 69.2707 75.5625 67.7648 76.0313 67.7648C76.5 67.7648 77.7188 66.9177 78.75 65.8824C80.625 64.0001 81.375 57.9765 79.7813 57.0354C79.4063 56.753 78.75 54.2118 78.4688 51.2942C77.4375 41.506 71.0625 35.0119 61.7813 34.3531C58.9688 34.0707 55.3125 34.3531 53.625 34.9178ZM68.25 40.1883C72.375 43.2942 74.3438 46.6824 74.8125 51.6707L75.2813 56.4707H71.0625C64.2188 56.4707 57 54.6824 54.6563 52.5177C52.4063 50.353 51.8438 50.5413 50.25 53.8354C49.6875 55.0589 48.1875 56.0942 47.0625 56.2824C45.2813 56.5648 45 56.1883 45 53.2707C45 46.9648 48.375 41.506 53.9063 38.9648C57.6563 37.1766 65.0625 37.8354 68.25 40.1883ZM59.5313 58.8236C62.625 59.5765 66.5625 60.2354 68.3438 60.2354H71.4375L71.0625 66.353C70.7813 71.8118 70.3125 72.8471 67.6875 75.5765C65.0625 78.1177 64.0313 78.5883 60 78.5883C56.0625 78.5883 54.9375 78.1177 52.3125 75.5765C49.7813 72.9412 49.3125 71.7177 48.9375 66.7295C48.5625 61.4589 48.75 60.706 50.7188 59.2001C53.3438 57.1295 52.5938 57.1295 59.5313 58.8236ZM45 62.2118C45 63.2471 44.625 63.8118 44.0625 63.5295C43.5938 63.2471 43.125 62.306 43.125 61.553C43.125 60.8001 43.5938 60.2354 44.0625 60.2354C44.625 60.2354 45 61.0824 45 62.2118ZM76.875 61.553C76.875 62.306 76.5 63.2471 75.9375 63.5295C75.4688 63.8118 75 63.2471 75 62.2118C75 61.0824 75.4688 60.2354 75.9375 60.2354C76.5 60.2354 76.875 60.8001 76.875 61.553ZM95.625 73.6001V83.2942L102.375 90.0706C109.875 97.6941 109.969 98.6353 102.656 100.706C98.0625 102.024 90.75 101.365 89.25 99.4824C88.7813 98.8236 87.75 96.2824 87.0938 93.7412C85.9688 89.6942 85.3125 88.9412 82.5 88C79.875 87.153 79.125 86.3059 78.9375 84.1412C78.4688 80.6589 80.25 74.6353 82.7813 71.153C84.375 68.8942 92.625 64.0001 94.9688 64.0001C95.3438 64.0001 95.625 68.3295 95.625 73.6001ZM108.188 67.5765C111.656 69.9295 114.375 73.9765 115.781 78.7765C116.344 80.9412 116.25 80.9412 107.906 80.9412H99.375V72.4706V64.0001L102 64.5648C103.406 64.8471 106.219 66.2589 108.188 67.5765ZM63.75 84.5177C63.75 85.553 62.9063 87.0589 61.875 88C60.0938 89.6 59.9063 89.6 58.125 88C57.0938 87.0589 56.25 85.553 56.25 84.5177C56.25 83.2 57 82.8236 60 82.8236C63 82.8236 63.75 83.2 63.75 84.5177ZM115.688 86.7765C113.156 95.153 112.406 95.3412 106.594 89.5059L101.719 84.7059H109.031C116.25 84.7059 116.344 84.7059 115.688 86.7765ZM55.7813 90.353C56.7188 91.3883 57.1875 92.5177 56.9063 92.8942C56.1563 93.553 52.5 90.5412 52.5 89.2236C52.5 87.9059 54 88.3765 55.7813 90.353ZM67.5 89.2236C67.5 90.5412 63.8438 93.553 63.0938 92.8942C62.8125 92.5177 63.2813 91.3883 64.2188 90.353C66 88.3765 67.5 87.9059 67.5 89.2236ZM52.875 104.847C54.75 109.271 54.75 109.176 52.7813 109.176C49.5 109.176 48.4688 107.765 49.6875 105.318C50.7188 103.435 50.625 102.965 48.8438 101.553C47.3438 100.329 46.875 98.9177 46.875 95.3412C46.875 88.4706 48 88.4706 49.7813 95.2471C50.625 98.5412 51.9375 102.776 52.875 104.847ZM73.125 95.4353C73.125 99.5765 72.75 100.706 71.1563 101.835C69.375 102.965 69.2813 103.435 70.3125 105.318C71.5313 107.765 70.5 109.176 67.3125 109.176C65.25 109.176 65.25 109.271 67.4063 104.282C68.3438 101.929 69.6563 97.6941 70.3125 94.7765C71.8125 88.3765 73.125 88.6589 73.125 95.4353ZM43.125 96.9412C43.125 101.082 43.5 102.682 44.625 103.341C46.0313 104.094 46.0313 104.376 44.5313 106.635C43.6875 107.953 43.2188 109.459 43.5 110.024C43.7813 110.494 47.25 111.624 51.0938 112.565C55.4063 113.6 58.125 114.729 58.125 115.482C58.125 116.424 55.4063 116.706 45.8438 116.706H33.4688L34.125 110.306C35.0625 100.988 36.75 92.8 37.875 92.0471C38.4375 91.6706 39.8438 91.2942 41.0625 91.2942C42.9375 91.2942 43.125 91.6706 43.125 96.9412ZM82.125 92.0471C83.25 92.8 84.9375 100.988 85.875 110.4L86.5313 116.706H74.1563C64.5938 116.706 61.875 116.424 61.875 115.482C61.875 114.729 64.5938 113.6 68.9063 112.565C72.75 111.624 76.2188 110.494 76.5 110.024C76.7813 109.459 76.3125 107.953 75.4688 106.635C73.9688 104.376 73.9688 104.094 75.375 103.341C76.5 102.682 76.875 101.082 76.875 96.9412C76.875 91.6706 77.0625 91.2942 79.0313 91.2942C80.1563 91.2942 81.5625 91.6706 82.125 92.0471ZM58.0313 102.118L57.9375 106.824L56.1563 103.059C53.9063 98.2589 53.9063 97.3177 56.25 97.3177C57.8438 97.3177 58.125 97.9765 58.0313 102.118ZM65.625 98.353C65.625 98.8236 64.7813 100.988 63.8438 103.059L62.0625 106.824L61.9688 102.118C61.875 97.9765 62.1563 97.3177 63.75 97.3177C64.7813 97.3177 65.625 97.7883 65.625 98.353Z" fill="#0C1830"/>
<path d="M52.7816 67.4825C51.9378 69.6472 54.4691 73.6943 57.4691 74.7296C60.8441 75.9531 64.6878 74.5414 66.4691 71.4355C68.9066 67.1061 67.4066 65.8825 60.0003 65.8825C54.6566 65.8825 53.2503 66.1649 52.7816 67.4825ZM62.3441 70.5884C62.0628 71.059 60.9378 71.5296 60.0003 71.5296C59.0628 71.5296 57.9378 71.059 57.6566 70.5884C57.2816 70.0237 58.3128 69.6472 60.0003 69.6472C61.6878 69.6472 62.7191 70.0237 62.3441 70.5884Z" fill="#0C1830"/>
<path d="M0.187671 61.8355L0.468921 82.3532L23.7189 82.6355C46.4064 82.8237 46.8752 82.8237 46.8752 80.9414C46.8752 79.2473 46.3127 79.059 40.3127 79.059H33.7502L33.5627 60.4238L33.2814 41.8826H28.1252H22.9689L22.6877 60.4238C22.5002 78.212 22.4064 79.059 20.6252 79.059C18.9377 79.059 18.7502 78.212 18.5627 66.0708L18.2814 53.1767H13.1252H7.96892L7.68767 66.0708C7.50017 78.3061 7.31267 79.059 5.62517 79.059C3.84392 79.059 3.75017 78.3061 3.75017 60.2355C3.75017 41.9767 3.65642 41.412 1.87517 41.412C0.000170521 41.412 0.000170484 41.8826 0.187671 61.8355ZM30.0002 62.1179C30.0002 78.4002 29.9064 79.059 28.1252 79.059C26.3439 79.059 26.2502 78.4002 26.2502 62.1179C26.2502 45.8356 26.3439 45.1767 28.1252 45.1767C29.9064 45.1767 30.0002 45.8356 30.0002 62.1179ZM15.0002 67.7649C15.0002 78.4002 14.9064 79.059 13.1252 79.059C11.3439 79.059 11.2502 78.4002 11.2502 67.7649C11.2502 57.1297 11.3439 56.4708 13.1252 56.4708C14.9064 56.4708 15.0002 57.1297 15.0002 67.7649Z" fill="#0C1830"/>
<path d="M105 45.1766C105 46.4002 104.344 47.059 103.125 47.059C101.906 47.059 101.25 47.7178 101.25 48.9413C101.25 50.1649 101.906 50.8237 103.125 50.8237C104.344 50.8237 105 51.4825 105 52.706C105 53.9296 105.656 54.5884 106.875 54.5884C108.094 54.5884 108.75 53.9296 108.75 52.706C108.75 51.4825 109.406 50.8237 110.625 50.8237C111.844 50.8237 112.5 50.1649 112.5 48.9413C112.5 47.7178 111.844 47.059 110.625 47.059C109.406 47.059 108.75 46.4002 108.75 45.1766C108.75 43.9531 108.094 43.2943 106.875 43.2943C105.656 43.2943 105 43.9531 105 45.1766Z" fill="#0C1830"/>
<path d="M15 95.9999C15 97.2234 14.3438 97.8822 13.125 97.8822C11.9063 97.8822 11.25 98.541 11.25 99.7646C11.25 100.988 11.9063 101.647 13.125 101.647C14.3438 101.647 15 102.306 15 103.529C15 104.753 15.6563 105.412 16.875 105.412C18.0938 105.412 18.75 104.753 18.75 103.529C18.75 102.306 19.4063 101.647 20.625 101.647C21.8438 101.647 22.5 100.988 22.5 99.7646C22.5 98.541 21.8438 97.8822 20.625 97.8822C19.4063 97.8822 18.75 97.2234 18.75 95.9999C18.75 94.7763 18.0938 94.1175 16.875 94.1175C15.6563 94.1175 15 94.7763 15 95.9999Z" fill="#0C1830"/>
</svg>
